<?xml version="1.0" encoding="UTF-8" standalone="no"?>
<svg
   xmlns:dc="http://purl.org/dc/elements/1.1/"
   xmlns:cc="http://creativecommons.org/ns#"
   xmlns:rdf="http://www.w3.org/1999/02/22-rdf-syntax-ns#"
   xmlns:svg="http://www.w3.org/2000/svg"
   xmlns="http://www.w3.org/2000/svg"
   xmlns:sodipodi="http://sodipodi.sourceforge.net/DTD/sodipodi-0.dtd"
   xmlns:inkscape="http://www.inkscape.org/namespaces/inkscape"
   data-name="Layer 1"
   width="826.3"
   height="603.5"
   version="1.1"
   id="svg100"
   sodipodi:docname="entrega_trad.svg"
   inkscape:version="0.92.3 (2405546, 2018-03-11)">
  <metadata
     id="metadata104">
    <rdf:RDF>
      <cc:Work
         rdf:about="">
        <dc:format>image/svg+xml</dc:format>
        <dc:type
           rdf:resource="http://purl.org/dc/dcmitype/StillImage" />
      </cc:Work>
    </rdf:RDF>
  </metadata>
  <sodipodi:namedview
     pagecolor="#ffffff"
     bordercolor="#666666"
     borderopacity="1"
     objecttolerance="10"
     gridtolerance="10"
     guidetolerance="10"
     inkscape:pageopacity="0"
     inkscape:pageshadow="2"
     inkscape:window-width="1366"
     inkscape:window-height="706"
     id="namedview102"
     showgrid="false"
     inkscape:zoom="1.1060627"
     inkscape:cx="67.611691"
     inkscape:cy="408.08117"
     inkscape:window-x="-8"
     inkscape:window-y="-8"
     inkscape:window-maximized="1"
     inkscape:current-layer="svg100" />
  <defs
     id="defs14">
    <clipPath
       clipPathUnits="userSpaceOnUse"
       id="b">
      <path
         d="M325.6 174.5a24.3 22.6 0 01-3-31.9 24.3 22.6 0 0134-3 24.3 22.6 0 013.4 31.9 24.3 22.6 0 01-34 3.2"
         opacity=".7"
         fill="#0ff"
         stroke="#ffc300"
         stroke-width="0"
         stroke-dashoffset="3.9"
         id="path2" />
    </clipPath>
    <clipPath
       clipPathUnits="userSpaceOnUse"
       id="d">
      <path
         d="M324.8 174.4a24.3 22.6 0 01-3-31.8 24.3 22.6 0 0134-3 24.3 22.6 0 013.3 31.8 24.3 22.6 0 01-34 3.2"
         opacity=".7"
         fill="#0ff"
         stroke="#ffc300"
         stroke-width="0"
         stroke-dashoffset="3.9"
         id="path5" />
    </clipPath>
    <filter
       height="1"
       y="0"
       width="1"
       x="0"
       id="a"
       color-interpolation-filters="sRGB">
      <feGaussianBlur
         id="feGaussianBlur8" />
    </filter>
    <filter
       id="c"
       x="0"
       width="1"
       y="0"
       height="1"
       color-interpolation-filters="sRGB">
      <feGaussianBlur
         stdDeviation=".1"
         id="feGaussianBlur11" />
    </filter>
  </defs>
  <rect
     x="321.1"
     y=".5"
     width="462"
     height="531"
     rx="5.4"
     fill="#fff"
     stroke="#3f3d56"
     stroke-miterlimit="10"
     opacity=".9"
     id="rect16" />
  <rect
     x="366.6"
     y="123.5"
     width="361"
     height="12"
     rx="5.4"
     fill="#f2f2f2"
     id="rect18" />
  <rect
     x="367.1"
     y="161.5"
     width="361"
     height="12"
     rx="5.4"
     fill="#f2f2f2"
     id="rect20" />
  <rect
     x="367.6"
     y="199.5"
     width="361"
     height="12"
     rx="5.4"
     fill="#f2f2f2"
     id="rect22" />
  <rect
     x="371.6"
     y="118.5"
     width="361"
     height="12"
     rx="5.4"
     fill="none"
     stroke="#3f3d56"
     stroke-miterlimit="10"
     id="rect24" />
  <rect
     x="372.1"
     y="156.5"
     width="361"
     height="12"
     rx="5.4"
     fill="none"
     stroke="#3f3d56"
     stroke-miterlimit="10"
     id="rect26" />
  <rect
     x="372.6"
     y="194.5"
     width="361"
     height="12"
     rx="5.4"
     fill="none"
     stroke="#3f3d56"
     stroke-miterlimit="10"
     id="rect28" />
  <path
     d="M154.2 69.6s20.2 38 17 58.2-6.5 38 0 47.7-34.8-1.6-34.8-1.6v-56.6z"
     fill="#a40"
     id="path30"
     style="fill:#2f2e41;fill-opacity:1" />
  <path
     d="M197.4 171.9s-48.9 54.5-64.2 40.8c-15.4-13.8-29.5-46.5-18.2-57 8.5-11.6 6.4-26.8 3.2-38.8 0 0 24.3-7.3 25 7.3.1 1.7.6 3.3 1.4 4.8 4.6 8.3 19.7 4 19.7 4z"
     fill="#fbbebe"
     id="path32"
     style="fill:#af7981;fill-opacity:1" />
  <path
     d="m 161,135.5 3.3,-2.4 c 12.91357,-0.69038 25.83456,1.21377 38,5.6 19.4,7.3 52.6607,10.6035 62.3607,8.1035 9.7,-2.5 33.8393,-4.0035 33.8393,-4.0035 0,0 25.9,-10.6 31.5,2.4 5.6,13 -34.7,13 -34.7,13 0,0 -28.7,11.6 -49,10 -20.3,-1.6 -46.4,7.7 -58.6,-2 -12.2,-9.7 -26.6,-30.7 -26.6,-30.7 z M 64.9,444.3 H 43 l -8,16.2 10.5,11.3 c 0,0 20.2,-2.5 25.8,-9 5.6,-6.5 -6.4,-18.5 -6.4,-18.5 z"
     id="path34"
     style="fill:#af7981;fill-opacity:1"
     inkscape:connector-curvature="0"
     sodipodi:nodetypes="cccscscssccccccsc" />
  <path
     d="M61.5 444.3s9-4 3.4-9-10.6-11.2-19.4-4.8-52.6 39.7-44.5 51 10.5 8.9 14.5 6.4 17-12 27.5-12 6.5-13.8 2.5-17.9 12.7-13.7 16-13.7z"
     fill="#3f3d56"
     id="path36"
     style="fill:#35335a;fill-opacity:1" />
  <path
     d="M145.7 547.8l-8.9 15.3 8.9 9.7h25s-8-16.1-4.8-23.4-20.2-1.6-20.2-1.6z"
     fill="#fbbebe"
     id="path38"
     style="fill:#af7981;fill-opacity:1" />
  <path
     d="m 170.8,559 c 0,0 -9,9.8 -14.6,8.2 -5.6,-1.6 -15.5,-10.8 -15.5,-10.8 0,0 -14.4,14 -8,20.5 6.4,6.5 32.4,18.6 39.7,23.4 7.3,4.8 31.5,1.6 30.7,-4 -0.8,-5.6 -13,-12.2 -18.6,-19.4 z"
     id="path40"
     inkscape:connector-curvature="0"
     style="fill:#35335a;fill-opacity:1" />
  <path
     d="m 213.6,294 c 0,0 24.19301,62.73231 -5.2214,128.87161 0,0 -21.8,89.16769 -29.9,108.56769 -8.1,19.4 -9.2786,26.8607 -9.2786,26.8607 0,0 -30.8,0.8 -28.4,-5.7 0,0 11.08503,-31.50973 10.6,-43.6 -0.6393,-15.93581 17,-77.6 17,-77.6 L 174,291.5 Z"
     id="path42"
     style="fill:#35335a;fill-opacity:1"
     inkscape:connector-curvature="0"
     sodipodi:nodetypes="ccsccsccc" />
  <path
     d="m 213.6,294 c 0,0 4.95021,28.5214 -21,41.2 0,0 13,90.5 -3.2,107.5 -16.2,17 -42.9,9.7 -42.9,9.7 0,0 -44.5,2.4 -77.6,15.3 0,0 -25.9,-7.2 -4.9,-25.8 0,0 26,-6.5 34,-12.2 8,-5.7 45.3,-17 55,-12 0,0 -4.63581,-15.0786 -7.83581,-24.7786 -3,-8.8 -11.3965,-38.7965 -11.3965,-38.7965 0,0 -20.0428,-34.48909 7.03231,-61.0249 22.87675,-22.42107 72.8,0.9 72.8,0.9 z"
     id="path46"
     inkscape:connector-curvature="0"
     style="fill:#3f3d68;fill-opacity:1"
     sodipodi:nodetypes="ccscccscccsc" />
  <path
     d="M144.6 129a30 30 0 01-24 1.4 85.2 85.2 0 00-2.4-13.5s24.3-7.3 25 7.3a11 11 0 001.4 4.8z"
     opacity=".1"
     id="path48" />
  <circle
     cx="131.1"
     cy="99.9"
     r="29.9"
     fill="#fbbebe"
     id="circle50"
     style="fill:#af7981;fill-opacity:1" />
  <path
     d="m 129.5,211.5 c 0,0 20.57468,24.8393 14.12489,50 -7.46102,29.10555 -9.22139,39.8607 -9.22139,39.8607 0,0 32.2965,0.6393 41.9965,7.1393 9.7,6.5 43.5965,-5.5393 43.5965,-5.5393 0,0 7.02036,-22.40603 0.3179,-51.53581 -3.5317,-15.34927 -10.33929,-33.20699 -7.93929,-38.00699 2.4,-4.8 5.80349,-32.6144 -10.87511,-42.4179 l -8.8,-4.7 c 0,0 5.5,23.3 -31.6,8.8 0,0 -8.1,47.7 -31.6,36.4 z"
     id="path52"
     style="fill:#b91253;fill-opacity:1"
     inkscape:connector-curvature="0"
     sodipodi:nodetypes="cscscsscccc" />
  <path
     fill="#ca313c"
     d="M161.5 133.7l.8.8 30.7 32.1.9 1v.2l.7 1.9 1.2 3.9-4.8-5.4-29.7-32.9-1.4-1.4 1.6-.3zM163.6 177.5s-25.2-21.8-43-16.2 8.7 53.8 14 54.4l2.2-.2s-33.1-40.4-14.5-52.5c0 0 23.4 2.4 41.2 17z"
     id="path54"
     style="fill:#b91253;fill-opacity:1" />
  <path
     d="m 148.1,172.7 59,18.6 97.9,5.6 c 0,0 28.2,0.8 23.4,13.8 -4.8,13 -30.7,3.2 -30.7,3.2 l -84.1,1.6 c 0,0 -59.91049,-0.90699 -75.2,-11.3 -5.75896,-3.91464 3.3,-34 9.7,-31.5 z"
     id="path56"
     style="fill:#af7981;fill-opacity:1"
     inkscape:connector-curvature="0"
     sodipodi:nodetypes="cccsccsc" />
  <path
     d="M125.5 111.2a55.8 55.8 0 008.2-18.4c2-6.6 8.4-10.7 15.1-9.6 5.8 1 12 1.3 13.9-1 4-5-.8-30.8-32.4-25.1-31.5 5.6-51.7-7.3-51.7 23.4s19.4 39.6 5.7 70.3c-13.8 30.8-40.5 34-25.1 54.2 15.4 20.2 55.8 25.9 58.2 18.6 2.4-7.3-9.7-35.6-1.6-46.9 8-11.3 21.8-23.4 14.1-37.6-4-7.3-10.9-20.6-4.4-27.9z"
     fill="#a40"
     id="path58"
     style="fill:#2f2e41;fill-opacity:1" />
  <path
     fill="none"
     stroke="#3f3d56"
     stroke-miterlimit="10"
     d="M26.6 603h316"
     id="path60" />
  <path
     d="M758.8 165.4a20.8 20.8 0 102.7-39.9c.7 13.6 2 13.2-4.5 1.6a20.7 20.7 0 00-11.9 17.3c-.6 9.3 5 17.9 13.7 21z"
     id="path62"
     fill="#57b894"
     style="fill:#f8b525;fill-opacity:1" />
  <path
     d="M783.9 289.7c-1.8-9.1 6-17.2 13.6-22.5s16.6-10.4 19.2-19.3c3.7-12.8-7.4-24.5-16.1-34.6a125.3 125.3 0 01-16.6-24.6 33.8 33.8 0 01-4-11.1 38.5 38.5 0 013-16.8q9.2-27 19.7-53.6"
     fill="none"
     stroke="#3f3d56"
     stroke-miterlimit="10"
     id="path64" />
  <path
     d="m 759.6,162.7 a 20.8,20.8 0 1 0 2.8,-40 l 0.5,10.8 -5,-9.2 a 20.7,20.7 0 0 0 -10.7,11.7 20.4,20.4 0 0 0 -1.2,5.6 20.8,20.8 0 0 0 13.6,21 z"
     stroke-miterlimit="10"
     id="path66"
     style="fill:#f8b525;fill-opacity:0;stroke:#3f3d56;stroke-miterlimit:10"
     inkscape:connector-curvature="0" />
  <path
     d="M781.3 103.5c2.4-6.7 8-11.7 15-13.2 2.1 14.3 1.3 11.4 4.9-.5a20.8 20.8 0 11-19.9 13.7z"
     fill="#57b894"
     id="path68"
     style="fill:#f8b525;fill-opacity:1" />
  <path
     d="M782.5 99.8a20.8 20.8 0 0115-13.2l1.6 10.2 3.2-10.7a20.8 20.8 0 11-19.8 13.7z"
     fill="none"
     stroke="#3f3d56"
     stroke-miterlimit="10"
     id="path70" />
  <path
     d="M796.9 213.5a20.8 20.8 0 0018.4-37c-3.3 13-2.5 7.4-4.1-2.1h-.1a20.8 20.8 0 10-14.2 39z"
     fill="#57b894"
     id="path72"
     style="fill:#f8b525;fill-opacity:1" />
  <path
     d="M797.9 209.8a20.8 20.8 0 0018.4-37L814 181l-1.8-10.3a.4.4 0 000 0 20.8 20.8 0 10-14.2 39z"
     fill="none"
     stroke="#3f3d56"
     stroke-miterlimit="10"
     id="path74" />
  <path
     d="M775.2 248a20.8 20.8 0 104-16.2l9.3 14-12.6-7.5a20.6 20.6 0 00-.7 9.8z"
     fill="#57b894"
     id="path76"
     style="fill:#f8b525;fill-opacity:1" />
  <path
     d="M776 245.3a20.8 20.8 0 104.1-16.3c8.9 13.6 12.4 15.8-3.4 6.5-1 3.2-1.2 6.5-.6 9.8z"
     stroke-miterlimit="10"
     fill="none"
     stroke="#3f3d56"
     id="path78" />
  <rect
     rx="5.4"
     height="12"
     width="361"
     y="259.5"
     x="366.6"
     fill="#f2f2f2"
     id="rect80" />
  <rect
     rx="5.4"
     height="12"
     width="361"
     y="297.5"
     x="367.1"
     fill="#f2f2f2"
     id="rect82" />
  <rect
     stroke-miterlimit="10"
     rx="5.4"
     height="12"
     width="361"
     y="254.5"
     x="371.6"
     fill="none"
     stroke="#3f3d56"
     id="rect84" />
  <rect
     stroke-miterlimit="10"
     rx="5.4"
     height="12"
     width="361"
     y="292.5"
     x="372.1"
     fill="none"
     stroke="#3f3d56"
     id="rect86" />
  <path
     d="M128.9 415.3c1 6.1 1.5 11 1 16.2-6.8 4.5 4.3-.9.8 4.8-4.3 2.4-4.2 2.5-.2 4.5-.9 4.3-10.7 4.4-2.4 4.6 7.6 2-6 4.5-2.3 5.5-11 2.7 5 .6 6.1 4.4-3.3 1.8-4 .9-5.4 2.1-4.7-1.6-8.7 1.3-1.8 1.4 3.6.7 11.6 2.8 7 4-.8 2.4-3.8 0-3 2.2-5.5 0-6.6-2.4-11.3-1.4 4.3 4 13.7 2.4 15.7 7.5-6.2 3.3-14 .2-20.2.3.1 5.1 7.7 4.2 11.3 5.6 2.3 1.5 11.4 2.3 9.5 4.7-4.6 4-11 1.8-14.3 2-3-1.2-3.6-1.9-5-.5-.1-6-8.7-2-5.8 1.2.7 6.1.7 1.7 2.7 1.5 1 1.8 2.7-2.3 4.3.8 2.7-1.3 4.2 0 6.8-.6-2.2 4.6 5.9-.3 7.1 3.1 7.7.9 0 6.2-2.3 6.4-.3.2-5.7 2.5-4.8-.6-4.1 4-4-6.4-6 .4-3-3-1.9-2-4-1-1.4-2.4-6 .5-6.6-5.2-2.7 1.9 1.7-8-2.5-9.8-4.5-.6-5.3-5-7.6-7.5 3.3-1.6-7-5-2-5.8-4.2-2-3.2-12.5 1.3-5 5 2.5 4 8.2 8.5 8.9 1 3.2 4.2 3.8 5.9 7.3 4.5-7.3-3.9-7.2-5.7-12 5.4 1.4-5.4-1.6-3.9-5.2-2.7-3.5-.8-9.6 3-3.9 2.1 3.7 14.7 12 8.9 4.1-.4 4-3-3.7-5.1-4-5.2-4.3-.9-8.3 3-3.2 2.2 1.5 8.8 6.8 4.2.9-2.2-3.7-6.8-5.6-6.6-9.5 4 .5 13.7 7.3 6.1-.5-4.8-6 7.5-.9 2.5-7.4 2.5-1.3 1-5 4.2-5.5-2-4.3 3.7-1.8 3.4-5.7 1.5-3.5 3.7-5.2 5.5-10.1zm-46 49.8c5.6 2.6 9 6.6 9.6 12 1 2 1.6-4 2.4 1.2-.6 2.1 3.7-1.8 2.4 3.2.3.9 3.7-2.3 2 2.7 2.4-1.4 1.6 3.3 4.4 5.4.5 2.4 1 9.9 1 9.6 1.8-5.2 6.5-3.4 4.4 1.3 2.6-4.8 9-3.3 3.7 1.6 2.8-2.4 7-4.6 5 .8 7.2-7.4 1.1 3.7 4 .8 3.6-3.6 2.2 1.8 6.5.5-3.7 4.4 4.8 1 4.3 6.6 3.8 3.4-6.7 1.7-7.4 1.9-3.1 1.6-6-9-4.2.1-3 3.2-3-8.4-4.7-1.3-2.7.5-3.5-8.6-3.4-.8-4.8 2.5-3.2-10.7-5.2-2.2-3.5 1.6-4-10.4-4.2-1-2.3 2.3-4-8.4-6-.5-.4 1.5-5 9-2.8 6.6 1.8-3.1 9.6-8.5 6-1.2-7.6 6.7 10.2-4.1 3.4 3.6-5.3 5 5.9-4 5 1.1-8.8 5.8 9.2-1.6 1.8 4.2-3.6 2.7 11.1-3 4.5 1.6-5.5 4.2 2.3.2 4.2 2.5-7.2 4.4 7-1.5 3 4 3.8 2 7.7 11.5 0 6.2-1.3 1.8-3.7-3.7-4 0-2.7-3-1.5-6-2.9-.8-2.5-2.5-2.6-7.3-3.6-1.2-3.3.8-3.5-12.1-3.7-5.4-1.8 10.2-3.8-9-4-2-3.1 9.5-3.6-12.7-4.1-1.5-3.6 6.3-3-9.1-3.8-5.2-.5 4.5-4.7 5.8-5.9 1.8-1.6 3-7 10-.7 7.5-1.1 2.8-5.7 9.9-.4 4.6 2.8-3 6.2-3 4.7-.7-2.3 3-5.7 6.5-.2 2.5 6.1-4.5 6.6 1.4.8 3.8 2.8-.5 13.7-3.5 7 .6-8 3.6 13.8-.9 3.5 4.5-4.2 1.7 11.4-1 3.8 3 3.2.7 9.3 0 2.9 2.6 1.7 1 9.5-.8 5.1 2.3 5.2.5 10.6 7.4 10.6 11.5-4.8-1-9-2.6-11.2-1.4-2-3.9-.9-2.1-2.5-.4-3.9-3.5-1.2-5.9-5.3-1.9-3.2-2.6-1.3-7.9-3.6-1.7-2.5 2-4.8-5.8-4.2-9-.4-.5-.9 6.5-1.9 6.5-4.2-3.4-1.7-15.5-4.7-5.1-4.5 3.9-2-10.6-3.4-7.1-.3 4-4 9-4.2 1.6 0-3.6-.2-10-1.3-2.8-3.6 10.4-3.2-12-5.7-2.6-1 3.6-9 10.5-1.4 8.2.6 3.6-5.3 10.4 1.2 3.9 4.6-4.4 9.1-2.9 5 2.3-8.9 8.4 8.5-7.3 5.7 2.7 8.6-5.2 1.3 7.6-.1 7.9 3.4-1.8 14.5-7.7 8.2.5-1.4 1.7-7.4 6.8-2.4 3.4 3.6-3.6 13.7-4.2 6 2-8.4 7.9 13-7.4 4.4 2.7-7.5 7.3 8.8-4.5 4 2.6-6 5.2 9-2.8 2.4 3.4-5.5 3.4 11.1-1 2.8 1.1-2.6 5.9 1.5 1.7 5.2 2.4-5.1 5.2 5.8.2 1.4 4.7 1.1-.8 6.5 4 4.5 5.2-3.5.4-9.2-1.3-10-2.3-.7 6.2-4.3-7.8-3.9.9-3.2-1.8-3.6-7.3-4-.9-.5 2.3-4.4-11.1-3.7-1.6-3.3 2-3.5-12.6-4.7-3-2.9 8.9-4.2-14.2-5.2-2.7-3.3 5.6-4-6.4-3.8-9.7-1.5 4-.8 10.7-6.2 11-.1 3-5.9 11.4-.2 5.7 3.3-5.4 7.8-2.3 3.9 2.5-7 9.2 10.1-8.6 4.5 2.6-6.4 8.4 4.4-2.2 6.1 1-2.3 3.3-3.8 6.5 1 2.7 8-2.7-4.7 7.5 2.2 3.4 4.6-3 4.3.3 2.2 2.7 4.2-4 2.7 2.8 7-.7 1.5 4.3 5.5 4.3 8.8 8-4.1 3-11.8 2-13.9 1.2-1.2 3.6-3.2-3.8-4.1 1.9-3.1-.3-2.4-10.6-3.5-3.3-3.6 9.4-4.2-14.6-4.9-2-.6 10.4-5-2.2-4.9-6.6-.2 1.4.1 8.7-3.3 11-2.4-3-.9-12.2-2.8-12 1.4 4.5-3.6 16.5-6 6.5-1.2-3 1.6-17.9-1.5-8.3.7 5.1-6.6 17.2-7.5 6.3.6-3.6 4.8-13.3 1.7-13.7.3 4.3-3.7 21-8.5 12.4-1.4-5.2 3.3-13 2.4-16.3-2.7 4-4 18.7-10 14.3-2.3-7.6 4.6-14.4 2.7-21-4.5 1-3.4 15-11.7 14.8-2.9-2.2 2-12.3-3.2-5.4-2.2 2.3-9.7 13.1-9.8 9.4 1.1-4.1 12-9.5 5.5-10.7.5-3 4.9-8.7-.2-3.6-7.2 4.6-2.5-3-1.5-4.5-3 4.4-11.2 3.8-5.5-1.8 6.1-6.3-10.6 6.8-4.8-2.2 4.4-4-7.7 2.5-3.5-2.9 4.3-4.9-10.4 4.9-4.2-1.7 3.2-5.2 2.9-2.6-2.2-1.9-4 .4-3.8-5-6.6-5.6-2.3-3.4-5.3-7.8-.3-6.5 4-1.7 6.7 4.8 8.1 1 0 5.7 4-2.3 4 4.6 1.5 0 1.7-6.3 2.7-.5 1.3 6.3 2-8 3.9.8 0 6.4 2.1-7.2 3.8.8 0 9.2 3-7.5 4.3 2 0 5.7.1 7.3 1.4 1 4-6.8 2 13.4 4 4 2-9.3 4 2.1 3.1 5 .2-3.8 6.3-10.2 5-2.8-.6 3.8-2.7 9.9 1.7 3.5 4.3-3.4 6.7-12.3 6.2-15.2-6.2 5.5-4.5-2.3-1.8-5.3-2.8 2.8-11 5.2-5.6-1.2 5.8-7.6-11.4 6.5-4.6-3 5.7-6.2-9.8 6.2-3.9-2 6-6-8.6 3.9-3.9-2.5 6-6-9.1 3.7-3.4-3.2 3.4-2-10 3.3-3.4-1.6-.2-1.8-5.1 1.2-2.6-2.5-2 .6-10.3-7.3-3.2-6.5 2.4 1.5 3.2 1.6 6 .1 1.5 8.2 7.9-7.6 7.3 2.6 2.2 5.4 0-8.4 3.8-.6.7 3.2 4.5-4.3 4.6 2.3 1.2 6.4 1.2 4.9 1.5-.7 2.8-4.9 3.8 13.3 4.1 2 4.2-7.7 1.7 13.6 5 2.5 3.2-1.7 1.5 12 2.8 7 1.5-8.7 3.9 2.1 3 4.2 2.7-6.5 3.8-.2 3 3 5.3-4.4 4.5-10.5 8.2-13.7-.8 2.7 3.6-1.9-.4-1.2-3.1 3.7-10.4 1.5-3.6-1.5 1.7.7-2.2 4.3 1.3.6-.2-3.5-12.2.6-4.9-5 1.8-1.5-10.7 2.3-4-3.3 3.4-3.1-10.2 1.8-4.5-2 4-3.2 3.9-4.5-1.6-2.3-8.6 1.2 7.5-7 .7-5-3 1.2-6.2-1.3-2-3.4-5 1.8-5.7-3.2-.9-2.8-3.3.1-6.6-1-4.9-3-2.9-4.3-4.4-5.7-5.8-10.3 5.7.4 9 6 13 5.7-.6 4.8 4.6-1.8 3.5 5.3.5-1.9 4.4-3.7 3.7 1.5-2.1 7.6 3.4-5.2 3 2.5-.4 6-.4 3.3 2.1.3 1.5 4-.3 9.3 3.3 3.2 3 2.3-1.3 11.4 3 4.4 5.2.4-2.6 12.9 3.1 5 2.5-.6 1.7 5.5 4.2 0 1.9-3.2 4.2-5.8-.6-4 4-5-8.7-.4-2-5 5.9-3.2-5.7 1.6-4.8-2.1 6.7-4.4.4-.8-3.4-2.9 2-2.6 6.7-3.8-.3-3-1.7-1.3 3-5-2.6-3.3-5.3 1.4 3.6-3.3.8-3.2-2.9.5-8.6-3.5-4.1-5.6-4 .1-3.6-1.5-2-3.7-5.4.6-4.8-10 .1-2.6 4.3 1.2 5.3 3.7 8.3 4.6.4 3.7 0 3.8 1.7.7 2.5 3-.2 5.7 4 3 1.9 3.1 0 5.7 2.7 2.3 1.7 3.2-.4 8.3 3.2 3 1.2 2.8-1.6 8.4 2.4 4.1-1.1 6.9 4.3 7.3 6.2.4 1.2-3.9 7.3-10.7 0-7.2-4.5.4 5.6-6.3-1.7-2.8-6 2 4-5.9-3.2-2.2-2.3-2.1 5.4-5.3-1.6-2.7-1.5-1.3.4-3.6-4.2-3.4 3-4-5.8-1.7-1.6-5.8-5.7-.3-6.6-9.3-9.1-13.6.8-3.8 7.4 2.4 9.1 3.6 1.5.6 4.2 1.6 4 3.9 3.1-4.7.9 8.7 4.3 2.3.8 3.7.3 5.2 3 2.3 1.8 2.6-1.4 8.6 3 4 1 2.5-.6 7 2.8 3.6-.2 11.7 10.2-9.2 1.6-3.3-3.5-1.3 2.4-5-3.3-3.8-.6-2.4 2.3-8.1-2-2.8-2.2.1 2.3-4.7-2.9-3.1-.7-1.1 5.2-6.6 0-3.8-3.3 1 .2-4.1-4.2-4 .8-3.3-6.2-8.1-2.5-12.6zm-2 25.5c-1.8 1.8 3 2.2 0 0zm2.4 1.2c-2.3 3.5 2.2 1.6 0 0zM35 497.5c.1 0-.5.2 0 0zm10.5 14.2c2.3 1.5.2 1.9 0 0zm0 .2c.2.4 0 1.7 0 0zm48 4.2c.6 2.7 5.5 1.1 0 0zm-70.7 9.6c.3.2-.1 0 0 0zm-3.5 3.5c1.7 0 0 .8 0 0zm67.3 2c-3.8 1.6-2.2 10.3-1 2.7.3-.6 2.2-2 1-2.6zM19.8 549c.1.3.1 0 0 0zm-17 2.6l.3.3zm102.6.1c-1 3 1.3 2.4 0 0zm-88 2.4c.2.3.1.4 0 0zm-17.3.2c.2.3-.7 1.2 0 0zm15.4 1c.1 0 0 .2 0 0zm54 .3c-5.3 6.3-9 13.8-8 22.2 1 11.5 3-6.6 6.5-9.1 5.4 2.5-.7 12.7 1 17.4 2.6-3 2.4-12.3 7.8-10.7 1.8 4-3.5 12.8-1.3 14 6.5-6.6 4-14.6 3.9-22.9 0-7.2-1.2 4.1-2.3 5.9-4.8 0-2-18.8-4.9-8.4-3.3 9.8-3.2-7.3-2.8-8.4zm-50.8 2l.4.2zm68.5 1.5c-4.7 2-.3 3.9 0 0zm-82.7 1.5c.2-.1.8.5 0 0zm1.9 1.6c.2 0 .3.7 0 0zm.4 2.8c1.3.4-.2 0 0 0zm3.4 3.8c.3 0 .1.5 0 0zm12.5.1c-1.2 2.4 3.6 2.6 0 0zm-6.3.2c-4.7.8.4 2.4 0 0zm68 1c-2.5 2.6-.3 14.5.6 5.5-.2-1.7.5-4.2-.7-5.5zm-29 5.7c-4.7 2-.7 8.6 0 2.2v-2.2zm-46.1.9c-.1.3-.4-.1 0 0zm37.2 7c-4.5.7 3 1 0 0zm-1.9 1.8c-3.6 1.6 1 3.1 0 0zm-24 4.6c1-.2 1.6 3 0 0zm54.5 2c-.3 2.3 4.7 1 0 0z"
     fill="#aad400"
     id="path88"
     style="fill:#f8b525;fill-opacity:1" />
  <g
     transform="matrix(.46068 0 0 .46068 432.6 384.8)"
     fill="#810920"
     filter="url(#a)"
     id="g94">
    <g
       transform="matrix(8.19123 0 0 8.7757 -2539.9 -1286)"
       clip-path="url(#d)"
       font-weight="400"
       font-size="23.4"
       font-family="aliens and cows"
       id="g92">
      <path
         style="line-height:1.25;-inkscape-font-specification:'aliens and cows';fill:#810920;fill-opacity:1"
         d="M327.6 163.2c0 .7-.2 1.2-.8 1.6-.6.4-1.4.6-2.5.6s-2.5-.4-3-1.3c-.2-.3-.3-.6-.3-1v-15.3-.2l.3-.1h1c.3 0 .6 0 .7.2.2 0 .3.2.3.4v15c0 .3.1.5.3.6.1.2.4.2.7.2.6 0 .8-.2 1-.7.3-.7 0-11.9.4-14 .6-.3 1.2-.3 1.9-.3.3.3-.1 0 0 0l.1.2zM333.3 150.1c1.5.1 2.8.9 2.8 2.2v4.6c-.3 2-2.7 1.5-3.5 1.5 3.2 0 3 .3 3.2.6.2.2.3.5.3.8v5.2H335c-.6 0-.8-.3-.8-.7v-4.5c0-.5-.4-.7-.9-.7h-.8v5.2c0 .5-.4.7-.9.7h-.8-.2v-.2l-.1-13.8c-.1-1.3 1.6-.9 2.8-.9zm-.8 1.5v6c.7.1 1.5 0 1.7-.7v-4.6c-.3-.8-1-.8-1.7-.7zM344.6 158.2c.2 0 .3 0 .3.2v4.7c0 .6-.2 1.2-.8 1.6-.5.3-1.3.5-2.3.5-.8 0-1.6-.1-2.2-.5l-.7-.7a2 2 0 01-.2-1v-10.9c.1-1.6 1.8-2.2 3.1-2.2 1.2.1 2.4.3 2.9 1.3.2.3 0 2.3 0 2.6 0 .7 0 .7-1.8 1l-.1-2.7c0-1-1.9-.7-2 0v11c.1 1 2 .7 2 0v-3.5c-.7 0-1-.2-1-.7 0-.4 0-.6.3-.7zM351.7 150.1c.2 0 .3.1.4.3l2 14.3c0 .3-.3.3-.5.3-.9 0-1.7.2-2-.6l-.2-2H350l-.2 2c-.2.5-.7.6-1.1.6-.5 0-1.2.2-1.4-.3l2-14.3c.1-.2.2-.2.4-.3zM350 161h1.3l-.6-9.8zM362.7 154.7c-1.5-.1-1.6-1.1-1.6-2.6 0-.2 0-.4-.3-.5-1.8-.7-2.2 1-2 2.2.5 1.9 2.2 2.9 3.4 4.3 1 1.4 2 4 1.2 5.7-.9 1.4-2.2 1.4-3.4 1.4-1.6 0-3.6-.5-3.7-2.1V160l.1-.2.3-.1c.6 0 1.4 0 2 .2.4 1.1-.6 3 .5 3.7.4.3 1.3.4 1.6 0 .6-1.1.2-3-.4-4-1.3-2-3.2-3.5-3.9-5.5-.3-1.4-.4-3.1 1.3-3.8 1-.4 1.6-.4 2.2-.4a5 5 0 012.7.6c1.2.8 1.6 4.4 0 4.2z"
         id="path90" />
    </g>
  </g>
  <rect
     x="343.1"
     y="42.5"
     width="180"
     height="24"
     rx="5.4"
     fill="#ca313c"
     id="rect96"
     style="fill:#b91253;fill-opacity:1" />
  <rect
     x="348.1"
     y="35.5"
     width="180"
     height="24"
     rx="5.4"
     fill="none"
     stroke="#3f3d56"
     stroke-miterlimit="10"
     id="rect98" />
</svg>
