<svg xmlns="http://www.w3.org/2000/svg" width="1236.6" height="477.2" viewBox="0 0 327.2 126.3"><path opacity=".5" fill="#810920" fill-rule="evenodd" stroke="#810920" stroke-width=".1" stroke-linejoin="round" paint-order="stroke fill markers" d="M-.8-.7h329.6v129.3H-.8z"/><path d="M216.9 1.7c1.9 1.2 5 3.3 7.3 3.7 2.2.3 6 2.4 5.9 3.3-3.5.2-7.1-2.6-10.7-1.8-2.2.6-2.5 1.2-1.4 2.8 4.6 4.1 8.1 1.3 12 4.5 2.2 2 1.2 2.3-4 1-5.7-1.5-9.6-1.5-9.3.1 0 1.4-2.8.5-2.8-.2-4.3-2.9-7.3.8-9.7-2.2-1.2-1.3-3 2-2.8 0 .2-2-3.2-.6-3.4 1.4l-.3 1.5-.3-1.7c-.4-2.3-.5-8.2 0-7 3.4 2.8 4.7 1.9 7.5 2.5 3 .4 12-.5 12.7-4.3 0-.5-6.6-1.5-12.6-2-1.6 0-3.6-.3-4.5-.4-3 0-3.3 4.4-3.5.5-.1-1.4-.4-2.6-.7-2.7-2-1.6-9.6-.7-7.4-.1 3.7 1.6 6-1.1 7.3 2 .2.6.3 1.6.2 2.4 0 1.2-.5 1.2-3.3.2-2.3-.6-6.8-3.1-8.9-2.6-2.2.3-8.8-1.7-7.8.2.5 2.4 8.6 6.3 8.7 6.6.8 1 2.6-1 2.4.8 1 3.5 1.5-1.4 2.4 1 1.1 2.1 4-2.1 3 .1-.5 1-.4 1.2.6 1 .7-.1 1.5-.5 2-.7.5-.4.8 1 1 4 .3 4.3-.2 6.8-.6 3.4-1.8-3.8-5.3-.7-5.3-.7-4-1.2-3.6-2-4.7-2.9-1.6-.8-.5 4.6-2.3 1-.7-1.4-9.7-7.4-12-8-1-.2-1.2-.4-.6-.8-3.9-1.2-2.6-3-3.1-3.1-6 2.1-1-1.8-3-2.4-8 .3-1.1 2-2.3-2.2-1.7-1.4-9 3.8-4.9 0-4.3-6.5-14 4.2-4.9 8.2 2.1-.3-.2-6.5 1.8-1.4.5 7.9 3.1-6.8 4 4 1.8 1.8 2.3-.5 3.5-2 .9-1-.4 2.4.5 4 2.4 3 1.8-.4 1.7-2.4 3.8 9 2.2.5 4 3.6.6 1 1 2 .7 2.5-.4 1.2 2.3 4.1 4.4 4.7 2.2 1.7 6.6 1.3 7.1 2.4 1.4 3 3.9-2.4 3.6 0 .6 3.2 3 0 4-1.2.4 7.8 3.4-3.6 3 1.7-.1 1 .2 1.8.8 2 1.4-2.7 2.7-4.7 2.2-.2-.2 2.5 1.8 1.1 2.2-1.5l.3-2.4.3 2.3c.1 1.3.2 4.4.1 6.8 0 3.7-.2 4.1-.5 2.2-.5-2.5-2.4-3.7-2-1.3 0 1.8-1.8-2.7-2.8-2.3-.6 1.3.4 2.8-1.8 1.2-6.5-2.9-12-.6-19-.2-4.5-4.4-5.7-1.7-8.6-2.8-.4-1.2 2.4-4.3-1-3-4.2 1 1.6-3-.7-3.8-1.5 0-3.4 2.3-3.2.7.4-1.3 2.5-4.5 0-4a6 6 0 00-2.4 1.6c-1.9 1.8 1.5-3.6.1-4.7 0 0-5.7 5.1-4.7 3.4.7-1.2.2-4.3-.7-4.1-1.6 1.3-2.3 2.8-3.4 4.6l.2-5.3.4-9.7-.4-2c-.6 2-.7 5.4-.7 6.4.1 1.6 0 1.7-1.3 1a7.2 7.2 0 01-1.9-1.8c-.3-.5-.1-.6.5 0 1 .6 1.1.2 1.5-4 .1-1.3 1-4.4-1-4-1.6-.4-3.6 5.1-4 5-.3 0 2.3-6.1-1.3-4.3-1.9-.5-3 2.3-3.1 2 0-1.8 1.8-5.7-.3-1.6h-15c-1 1.4-2 4-1 5.2.6.6 1.5-.1 4-3.4.7-.8 1.4-1.4 1.8-1.3.3 0 0 .6-.6 1.2-1.3 1.4-2.3 4.6-1.8 6 .3 1 2.5 1 2.6 0 .8-1.4 1.7-2.3 2.8-3.6l-.7 3.5c-.6 2.9-.5 3.6.2 3.8 1.3.3 4.9-3.5 4.5-4.8-.3-1.1.4.5 1.6-1 .6-.7 1.3-1.2 1.6-1.1.3 0-.6 1.5-2 3.1-3.2 3.8-3.7 6.6-1.3 7.2 1.5.4 4.5-1.8 8.1-5.9.7-.8 1.5-1.2 1.8-1 .3.4-.3 1.4-1.4 2.4-3.8 3.6-5 7.7-2.7 8.3 1.4.3 6-3.4 7.2-5.8.9-2 1-1 .3 8.4a215 215 0 01-1.4 14.1c-.6 3.6-.6 3.7-1.7 2.2-.7-1.9 1-.5 1.4-3.5.4-4.2-.7-7-2.4-5.8-.7.5-1.1 1.9-1.2 4.5-.2 3-.4 3.7-1 3.2-2.9-1.4-2-3.1-1.6-5.4.5-3.3.5-5.3-.3-8.3-3.2 1.8-6 12.5-5.6 5.6.2-3.7-.9-9.3-1.9-9.6-3.7 1-4.5 13.9-4.3 8 .1-3-1.6-9.5-2.5-9.3-2.5 0-2.5 9.5-2.7 9.4-.3 0-.7-1.7-1-3.7-.4-4.1-2.9-8.8-4.4-8.4-1.7-.3-.2 10.1-.6 9.7-.3-.4-1-2.3-1.3-4.3-.4-2.4-1.1-4-2-4.5-4.4 10.8-3.4-1.8-7-1.8-1.6 1-1 4.6-.2 6.6.3.7.3 1-.1 1-1.5-1.8-1.8-7.3-4-8-2 .7-.4 6.9-1.2 6.7-.8-1.3-2.8-9.8-4.1-6.9-.5 1 .2 6-.3 6-1-2.2-3.2-10.2-3.8-5.8l-.2 1.6-1-1.8c-1.4-2.3-3.3-3-3-1.1.3 1 0 1-.7.3-1.2-1.1-4.4-1.8-4.5-1-1 .8-2.4.2-3.6.8-1.8 1.3 1.9 3.7 3 3.8 1.6.6-1.8 1.8.2 2.3 1.4.3 3-1.4 2.8-.3-.3 1.2-1.5 1.6-1 2.6 1.2 1.3 4.7-1.8 5.2-1.1-.2.8-3 2.6-2.4 4.2 11-5.6 2.1 1.7 4.6 2.3 1.9.3 5.4-3.4 6-2.8 0 1.8-3.8 4.4-1.6 6 11.8-9.4 1.3 3.2 4.4 3 3 0 3.5-5 5.4-5.5 2.1.4-3 5-2 7.1 3 2.6 6.3-6.4 8-6.2.3 0-.1 1.1-.9 2.4a12 12 0 00-2.1 6.6c-.2 2.3 1.5 1.1 3.9-2.9 2.5-4.3 4.2-6 4-3.9-1.6 3-3.2 5.6-3.6 9.1-.2 1.9 0 2.5.9 2.7 1.4.3 2.7-1 5.5-5.4 4-6.4 5.5-6.2 2.3.2-2 4-2.9 7.4-2.4 8.9.4 1 1 .9 3-.3 2.3-1.2 3-2.2 4.9-6.5 1.9-4.6 2.3-5.2 3.7-4.8 2 .6.1.7-.1 1.6-2 7.8-3.6 11.6-.2 18.4L130 52c1.1-1 1.8-2.3 2-3.9.7-7.2 1.8-12.2 2.5-12.3.5-.1 1.5.2 2.3.7 3 2-2.5 4.7-1 8.4.3 1 1 1.4 1.7 1.3 1.4-.3 3.4-3.6 3.7-5.8.1-1.1.4-1.4 1.1-.9.9.7.8 1.7-.2 8a59 59 0 01-5.2 17.8c-1.5 2.6-12 0-12.1.5-.2.5-1.3.8-2.5.8-3.3 0-.6-1.4-2-1.8-.5 0-1.1.3-1.4.8-.7 1.7-17.2.5-45.4-3.4L71 62l1.8-1.9c1.6-1.5 2-1.7 2.8-.7-.6-1.9 6 .5 5.7-1.4-.1-.6 1.2-1.6 3.3-2.2a36 36 0 008.7-5.7c3-2.5 5.4-4.6 5.5-4.5l1.6 1.1c1 .7 1.6.9 1.6.5s-.5-1-1.2-1.4c-.8-.5 3.5.6.7 3.1-2 1.9-2.4 3.6-1.2 6 1.3 2.4 4 2.7 5.9.6 1.6-1.8 2.3-4.5 1.2-4.7-.4-.1-.6.5-.5 1.5.2 1.3 0 1.5-1.6 1.2-1-.3-2.1-.2-2.4.2-.8 1.2-1.4-.2-.9-2.2.6-2.1 1.2-2.2 2.4-.2 2.4 3.4.7-1.3 1.9-2 .4-.2.4-1-.1-2.4-.6-1.7-1.4-2.3-3.2-2.7-2.8-.7-5.3.6-11.2 5.8-7.3 6-12 5.9-19.8 3.7-1-.3-1.8-2-3.3-7-1.1-3.7-2.3-7-2.6-7.4-.4-.4-.2-.6.5-.5 3.3-.7 1.8-6.7 4.2-6 1.4.8 8.6-2.5 5.9-2.6-.7 0-1.3-.4-1.2-.8 1-1 2.5-.6 3.5-1.6-.7-1.7 1.5-1.1.1-3.6-.3-.6-1-.4-1.8.8-.7 1-1.5 1.5-1.8 1.2-.2 3.4-5.9 2.2-6.2 3.9 0 .6-1 1.8-1.9 2.6-1 .6-2 3.5-2.6 3-.8-1 .2-3.5-1-3.9-.8-.6.6-2-.3-2.6-1-.7 1.3-3.7 6-7.8 4-3.6 4.3-4 4-6.1 1-1-1.9-6.7-.8-5.8.4.5 1.2 0 2-1 1-1.4 1.1-2.1.7-3.9-.3-1.1-.3-2.5 0-3-1-.7-.8 2-.6 2.9.4 1.9.3 2.4-.7 3.3-1.2 1-1.3 1-2.3-1-1.2-2.7-1-3.8.8-7C71-2.6 70 1.6 70.2 3a26 26 0 001.2 6.5c1.7 4.2 1.5 6.2-1 8.8-2.7 3-3.7 3-3-.1.4-1.8.4-2.1-.4-1.6-.5.4-.7 1-.6 1.5-.5 1.5-1.3-1.4-1.3-2 0-2.2-1-2.4-1.2-.1.8 4.1 3 4.6.3 7.4L62 25.7c-1.2-2.7-1-9.3-2-10.6A41.6 41.6 0 0156.9 0c-7.7-2.5-4.7 5.7-3.1 11.4l1.5 6c-1.5-.2-3.2-1.4-4.8-.7-1 .4-.8.6 1.4 1.2 2.8.7 5 2.3 4.9 3.6-.2 1.4-3.4-.1-6.8-3.3-1.9-1.8-4.7-4-6.2-5l-2.9-1.5-.1-6c0-3.1-.5-6.1-.8-6.5-.2-.2-.3-.5-.9.3-.6.7 0 2.4 0 3-.2 4.2-.2 5.8.1 8.2l.4 2.6-3.5.2c-2 0-3.3.5-3.1.8.2.4 1.9.7 3.6.6 5.4-.2 8.5 1 12.9 4.7 2.1 1.9 4.5 3.6 5.2 3.7 3.4.8 5.8 7 4.6 11.7l-.6 2.7-1.5-2c-1-1.4-2-1.9-3.7-2-3.4-.2-3-2-5-4-.6-.6-.3.2.7 1.8 1.6 2.3 2.6 3 4.8 3.6 2.6.6 2.9 1 4.3 4.4.8 2 2.6 5 4 6.7 3 3.6 4.3 9 2.5 12.8-.9 1.9-1.4 2.1-3.3 1.7C46.7 65 47.6 47.1 39.9 43.5c-1.5-.6-2-1.3-2.6-3.5-.6-2.7-1.5-3.8-1.7-2-.2 1.7 2.4 6 3.7 6.3 1.5.3 2.7 2.3 3.8 6.4a9.8 9.8 0 001.9 4c1.9 1.4 0 2-2.1.6-1.6-.9-2.7-1.1-3.8-.8-1.4 1-3.9-1.8-4.4-1.4-.2.2.4.9 1.3 1.6 1.2.9 2 1 3.1.7 1-.4 1.9-.2 3 .6 1 .7 2.6 1.5 3.7 1.8 1 .2 2.4 1 3 1.7.8 1.1.5 1.3-2.7 1.4-3.8.2-7.3.9-10.9 1.5L33 59.7c-2.3-2.7-7.5-6.2-7.6-5.1 3 3.4 11 7.3 5 9.3-3.1 1.1-8.3 2.7-7.3 6 .5 2 3.3 4.3 7 6 2.4 1 4.5 3 6.7 4 1.2.5 2.3 1.5 2.5 2.2.1.6 1 1.4 2 1.6 1 .2 2.2 1.2 2.7 2 .7 1.5.7 1.7-.6 2.4-.7.3-1.3 1.1-1.2 1.7.3 1.6-1 2.6-3 2.3-2.3 0 3.6 1.1 4-1.4.3-2.4 2.2-2.7 5.8-.9 2.8 1.4 3.5 2.1 4.2 4.4 1 3 .2 7.4-1 5.7-.4-.6-2.4-.7-5.5-.2-8.4 1.5-12.3.5-14.4-6.7-1.6-5.4-1.2-7.7 1.1-7.2 1.2.3 2.2-1 2.3-2.9-.8 0-1.3 2.3-2.7 2-.7-.1-1.5.4-1.8 1.2-2.6 4-1.4-7.6-2.5-6.8-.2.2-.2 2.7 0 5.7v5.6c-.3.2-1-.8-1.7-2.2L25.6 86l1.1 2.8c1.8 4.1 4.8 2.6 5.7 7.5.4 2.5.8 3 3.3 4 2 1 4 1.1 7 .8 3.2-.4 6.2 0 9.2.6l-.5 4.2c-.7 5.4-2.7 17-3.3 18.4-.4 1.1-3.6 2.6-6.2 2.9-12.3-3.5-19.2 0 6.9 0 15.2 1.8 29.9-1.2 44-3.8 18-3.2 31-5.7 32.8-6.4 4-2.4.2-6.3-2-7-7.4-2.3-14.6-4.8-20.5-6.7-24.3-7.6-39.3-13-39.2-14.2.2-1.6 2.7-3.5 4.7-3.5 1.3 0 2-.3 1.6-.7-1.3-1.4 8.8-4 24-6.3 9.5-.8 20.3-4.9 22.8-5.1 0 0-1-.3-2.5.2-9.8 2.4-19 3.6-29.5 5.3-4.4.7-10 1.9-12.4 2.6-4.8 1.4-5 1.5-4.3.4-.8-2-1.5 1.2-2 1.6-.6.6-1.6-3-1.1-4 .2-5 1.2-9.2 3.5-13.3.9-1.6 1.7-2 3-1.7 7.2.2 27.3 3.5 36.3 3.7 9.5.2 9.5.2 8.8 2.3-.5 1.6-.5 1.6.6.3.7-.7 1-1.6 1-2-.2-.3.4-.4 1.3-.2.8.2 2 7.8 4.5 0 2.8-.7 7.5.3 11.5-.3 2.8-.4 4.2 1 12.2 12.8 2.1 3 4 6 4.4 6.4.8 2.9-5.6-2.9-6.1.4-.4 3 4.1 8.8 8.3 10.6 2.6 1 2.9 1.6 1.7 2.9-4.8.9-8.9-4.9-13.8-6.2-2.9-.7-3.6-.2-2.9 2.1.8 2.6 1 2.9 6.6 6.6 2.7 1.8 4.8 3.5 4.6 3.8-3.3-.7-11.3-7.4-14-5.3-1.7 1.4-.9 3.8 2.2 6 2.6 1.8 7 4 8 4 .2 0 .4.4.3.9-2.8 0-15.2-8.2-14.6-3 .3 1.6 4.2 4.8 8 6.4 1.6.7 2.8 1.6 2.8 2-3 .9-12-4.6-12.8-.3-.2 1.7 2 3.4 5.6 4.4 6.4 2.7-4.5.7-7.2 1.3l1.3 1.9c.5.7 1.2 1.3 8.1-.6 8.7 2.4 8.7 2.4 10 .8.6.6 1.2 1.1 14.4.9 14.3-1 36.7-1.2 34.7-2.8-1.5-1-1.4-1.1 1.3-.6 6.8.5-3.3-4.3 2.2-2.3 6.2 1.8 0-3.8 2-2.7 1.6 1 4.4 1 7.3-4.3 1-3.9 4.3-7.7 5.6-11 .7-2 .3-2-3.6-.9-1.4.4-2.7.6-2.8.4 1.3-1.2 2.5-1.1 2.7-3 4.9-10.2 10.7-17.3 13.2-15a44 44 0 00-5.8 22.1c.8 4.3 1 5.6 1.3 6.1 2.8.7 2.3-6.4 3.2-5.4.6-5.3 3.4-4.4 5.2-8.2 1.8-3.8-.3-7.3.9-7.7.5-.2.8-.7.7-1.1-.3-1.6 3.7 1.5 2 1.2-.6-.1-1.4.2-2 .8.8 3.2.8 5.1-1.3 6.8 0 2.6-1 7.4-1.2 11.4 0 3.3 1.7 4.5 2.7 1.7 1.7-2.8 7.3-19.1 6.3-8.6-1 5.1-3 7.4-.6 12.2 2 4 3.3 1.1 5.3-11.6 1.2-1-.2-6.1 0-6.2.1-.2.7 0 1.3.4 1.2 1-.2 5.8.3 6 .9 1.6.2 4.2 0 5.8-.6 3 2.5 12 4.3 8.2.8-1.8 1.7-13 1.1-14.6 1-1.8 1.5 4.5 1.6 4.7.2 5.7 2.4 12.3 4.2 12.8.4 0 .8-2.7 1-6.3.3-6.3.4-6.4.8-2.9.4 3.2 1.8 5.7 3.6 8.2.5-1.3.6-10.4 1-7 .8.8 1.8 5.4 5.4 5.3-1.1-7.2 5.8 1.7 5.5-2-.2-2.5.8-1.3 2.8 0 0 0 3.4 1.5 5.1.5 0 0-.5 1.8 0 0-1.2-7.2-5.1-.4-1.2-7.2-2.8-2-3.2.8-5.6-2.2-2.5-3-5.3-.8-4.8-.8-4.6 3.8 1.9-4 0-4.7-1.1.5-5.7 4.6-5.7 3.6.4-1 3.5-4.5 2.4-5.1-3.3-.2-4.3 2.6-6.2 3.4-1.4.6-1.4.4.5-1.8 4-4.6 2-7-2.3-3.1-1.4 1.2-2.5 2-2.7 1.8 0-.2 1-1.7 2.3-3.4 1.8-2.4 2.3-3.4 1.8-4.2-2.3-2.2-7.2 3-9.3 4.3-1.2.9-1.2.8-.3-.6 2.3-4 8.4-8.3 4.5-9.5-3.2-.8-10.3 8.6-11.7 7.4-.5-.9 3.2-6.1 6.2-8.9 3.7-3.4 3.6-6.2-.1-5.4-3 5-8.6 3.9-11 8.8-.6 1.3-2 1.4-1.8.1 1.7-1 2.9-4.4 3.6-4.8.8-.2 4.9-7.9 5-9.5-3.7-3-10.9 5.9-12.5 8.5-1.6 2.7-2.1 2.8-4.3 1-2.5-2.3-2.4-3 0-2 1 0 8.5-5.5 8.4-9 0-1.8 1.8-2.6 2-4.3-5.5-1.6-12.8 6.8-12.9 9.6l-.1 3.3-2.7-2.8c-3-3-4-4.4-3.3-4.2 1.2.5 2.6 2.6 3.6 1.7.1-3.3 4.2-4.5 4.2-4.7-2.2-2 2.7-8.9 5-7.2 1.3 1 5.2-1.2 6.6-3.6 1.4-2.1 3.3-4.1 4.5-6 1-1.6 2.1-2.9 2.6-3 1.1.2.6 3.4.1 4.2a55.1 55.1 0 00-4.9 13.2c0 2.3 2.2 2.6 3.3.3 2.9-2.8 3.7-6.8 5.7-10.3 4.4-1.8 2.2 3 1.9 7.6.1 2-2.4 8.3-1 8.8 1 .3 3.5-2.8 4.7-5.9 2.9-5.7 1.5 0 1.7.3 3.7 1.8-1.5 2 .2 6.2 4.4 4.6 2.9-6.7 4.3-8.2 1.9.6.1 6.7 1.5 7.3 2.4 6.8 3.5-.2 3.7-3.2 0-4.9 2.2 4.6 2.4 5 2.6 4.6 1.7-4.4 2.9-4.2 1.2 2 .8 5 2.4 7.2 1.9 1.5.8-4.3 2.5-5.5 2.2-1.2-1.4 1.6.6 3 2 4.8 3.9 1.6 7.4 4.8 2.1-1.4 3.8 0 5.7 1 3.3.5-3-8-3.8-8.5.2-4.9-2.6 1-3.2 0-1.3-1.8 1.4-2.7.6-4.2-1-.5-4.7 1.8-2.5-.4-1.5-5.5-2.8 3-2.5-3.6-2.7-2-3 4.6-4 3-1.3-1.6-1.7-.2.4-6.5-2.5.5-3.3 3.3-5.6 4.2 1.2-3.8 4.9-12.9-1-6.6-9.3 8.4 2.3-5.5-1-6.5-1.4-.4-3.9 1-6.8 3.9-5.4 4 2.6-5.2 1.5-7.8-.3-.4-2.3.8-4.6 2.7a47.1 47.1 0 01-4.3 3.4c-.3 0 1.8-4.7 2.3-5 .8-1.3 3.8-5.5 1.3-6.1-3-.2-7.8 7.6-8.7 7.5-.8-1.4 5.1-8 5.8-10.6.1-1.6-2.5-1.2-3.7.4-2.8 3.6-6.3 6.8-7.2 6.6-.2-2.5 6.5-7.7 5.8-10.5 0-.3.8-1 2-1.6 1.2-.5 3-1.6 3.9-2.4 2.6-2 3-1.5.8 1.3s-2.4 4-1.2 5c3.6 1.2 7-8 9-7.7 1 .2-.5 4-2.5 6-1.8 2-2.3 4.8-1 5.7 2 .1 7.8-6 7.7-4.4-1 3-5.2 7.5-4.4 10 .7 2 4.7.1 7.1-3.4 1.2-1.6 2.4-3 2.7-2.9.8.2.9-.1-1.4 4.7-2.2 4.5-2.4 7.1-.6 7.6 1.2.2 3.4-2.1 5.3-6l1.3-2.4-.8 5c-1 6.3-.6 7.9 1.6 5.4.8-1 1.8-2.6 2.1-3.5 2.2-4.4-.5 5.2.1 6.3 7.7-.3 3.4-10.6 4.8 1.8 4.9-4.8 4.7-4.1 5.1 1.9 1.2 1.2 1.9-5 2.5-5 .8 1.3-.5 6 1.5 6.7 1.4 0 1.7-5.7 1.9-4 .4 1 1.8 5.2 3 3.5.4-.5.5-1.3.4-1.8.2-.7.5 2.5 1.4 2.7 1.3-2.9 2.6.9 4.9.5 2.2-.4 4.8-1 4.9-1.8 0-.8-7.8-3.5-9.7-7.1-1.8-3.6-4-1.3-6.3-.5.2-.2 1.6-1 3-4.7-1.6-.8-6.5 3.5-6.4 2.5.6-1.3 5-5.3 3.6-5.8-14.7 4.8-7 8.5-2.8-2.6-.3-.5-3.7.6-5.9 2-3.2 1.3 2-2.4 2.4-4.1-1-3-6.2 1.3-7.3 1.3.5-1.8 6.2-6.2 2.2-6-1.8.2-8 3.4-5 .8 1.8-1 3-1.6 3.8-3.1 2.5-3.3 4.2-5.6 6.1-9.3l-.7 3.4c-1.5 7.6-1.6 8-.2 8.3 2.1-.4 5.6-6.8 5.8-5.9.2.7-.2 2.4-.7 3.6-1.4 3.4-1.5 5.2-.1 5.5 1 .2 1.5-.3 3.7-4.7.8-1.6.9-1.5.5 1.7-.8 5.8-.8 7 .2 7.2 2.5-.3 2.7-5.7 3.5-5.6 1 2 .7 11.3 3.7 4.4 5.9 2.9 11.5 8.2 12.5 3.6.2-2.3-5.1-6.5-4.5-5-3 .9 1.7-4.5-.7-5.2-1.2-.2-3.4 2-2.9 3 .2.5.2.5-.1 0-1.4-3.1.4-3.3 1-4.2 1-1.2-1.2-1.1-3.1.1-5.3 1.6 3.5-5.5-3.3-2.2l-2.4 1.2c2-2.3 4-6.4 0-4.5-6.7 3.3 2-4-.9-4.8-.4-.1-1.8.4-3 1.3-6 2.5 1.3-2.3 1.8-5 2 .4 3.4-3.5 3.4-3.5.3 2-.5 7.4.5 7.8 5.8-6.2.7-2.8 3.3 1.9 1.4 1.8 2.8-3.6 2.5-4.6 2.3-.2 1.2 4.8 1.4 6.3 1 3 2.5-2.8 3-2.8 1 1.4.5 3.2 1.2 4.7 1 3 1.6-2.6 2-4 1.2-1.8 1.8 4.9 2.2 6.2 2.6-3.5 3 2.2 5-1.6 3.3-6.3-4.8-5.3-3.5-6.7 1.3-3.3-5-1.9-4-3.5.8-.9 2.3.3 2.8-.7.2-2.9-8 2-4.2-1.6 4-6-7.4.6-3.5-3.2 2.3-4.1-2.6-1.6-5.3-.7l1.6-1.6c4-7.1-6.7.6-2.6-4.1 1.7-2 1.5-3.4-.4-3.1-1.9.3-1.4-.4 1.6-2 5.2-2.7 1.4 1.3 2.5 4 .8 1.8 4.2-4.4 4.7-4.4 1 2.4-1.9 4.3-.7 6.5 1.3 1.6 3-2 4.1-3.7l-.8 4c-.8 3.7-.8 4.1.3 4.1 2-.9 2.3-3 3-5v2.9c-.1 1.9.2 3 .7 3.1 1.2.3 8.5 2.2 8.6 1.3-.8-4-3.3-12.4-6.8-10.4-5.1 3 1.2-2.7-.5-3.3-1.6.4-2.9.9-4.6 1.5 2.5-2.6 4-5.7-.6-3.2-1.5.8-2.8 1-3.5.5-1-.7-1-.9.7-1.7 3-1.6 7.7-3.5 8.3-3.4.8 1-.4 5.1.7 5.2 3 .8 1.4-3.4 6.3-.5-1.8-2.1-.1-6-.6-7.2-.3-.7-.6-1-4.3-.7-6.8-.2-4.8 1.2-5.6 1.7-.5.3 2.9 2 .4 1.6-.4-.1-2.3.7-4.4 1.7-3.8 2-4.8 2-2 0 2-1.6 0-1.3.7-3.1.4-1.4.1-2.4-3.4-1.9-5.8-1.8-4.6 6.7-2.5 6 1.8-.5 2.8 0 2 1.2-.3.4-2.5 1.7-4.9 2.9-3 1.5-4.4 1.9-4-.3 0 0 2.6-3.5-.8-3-1.6-.6 1.8-3.8-1.6-3.1-1.8-1.8.2-4-3.8-3.5-7-.6-3 2.6-4.4 3-2.8 1.2 2.5 2.4.3 4-2.4 2.4-1.3 2.3.2 3.5.7 1.4 3.6-2.5 4.2-1 0 .3-1.3 1.2-2.8 2-2.5 1.4-2.7 1.6-1.7 2.7 1.2 1.4 5.1 2.5 4.7 1.2-.1-.7 1.1.5 2.4 0 1.2-.4 1.3-.7.7-2-.5-1.6 1.3 1.2 2.8 0-.6 1-8.4 8.2-7.5 10.4.4.8 4.9-1 5.4-2 2.5-3.4.6 2.2.6 3-.2 1.6-.5 2.2-1.3 2-2.2-.3-5.4 3.3-7.1 3 5.9-4.6 1.8-7.6-1.9-4.3-2.4 2.2-2.2.5.2-2 1.7-1.8 2.2-2.7 1.8-3.5-.9-1.7 3-2.8 2.7-3.5-.2-.3-3 1-6.3 2.8-8.7 4.7-8 4.5-7.3 1.9.4-1.5.4-2.6 1.2-3.4.8-.8 2.3 1.5 4.6 1 3.1-1 2.2-2.4-1.6-2.7-1.7-.1-3.1-.4-3.1-.6 2.3-2 6.9-4 2.1-4.8l-2.8-.4c3.5-2.1 7-5.7.8-4.6-.8-.4 5.8-7.3-.4-4 .5-4.4-10.5-2-11-2 3.6.1 0 2.8-.2 3.7.6 1.7 6.4 4.6 3.7 4-1-.2-2.5 0-3.2.4-2.1 1-4.3 1.3-6.6 1.8-.8.2 0-.8 1.7-2.2 1.6-1.3 3-2.9 3-3.4-.7-2.2-5-.4-6.7.2l2.7-2.2c1.2-1 2.1-2-4.3-2-13.4.4-1 .3-1.1 2.8-5.8-.2-5.8.5-7.8 2.9.2 2.6 7.7 1.7 7.7 3.1-2.3 2.2-6-.8-8.9.3-1.3.6-1.7 2.6-.7 3.4 5.2 1.1 4.7 2.1 9.8 2 .6.5-.1 1.2.2 2 .4.6-.4.8-2.3.5-4-.6-7.6.1-8 1.6-.3 2 1.4.5 1.8 2.3.2 1.2 1 1.5 5.4 2.3 5.8 1 7.3 2.8 2.5 3-3.5 0-9.2 2.5-9 3.8 0 .5 1.3 1.4 2.8 1.8 1.9.7 2.5.6 2.3-.1 0-1 2.6.2 4.4-.4 4.1-1.6 2.7.6-2 3-10 5-10.6 5.2-10.5 3.5-.9-3.9-8.3 0-10.3-1 2.7-1.9 10.8-1 11.7-5.2 0-.9-7.4-2.2-10.7-2-3.5-.3 2.4-1 3-.9 2.8.1 7.2-2.3 6.7-3.7-.3-1-7.4-2.2-10-1.8-.5-.5 4.2-1.3 5.3-1.4 3.5-.3 5.3-1.5 5-3.2-1.2-3-10-2.6-12.4-1.5-1.5.4.3-1.6-.7-2.3 3-.3 14.4-.1 12.8-4.5-3.1-4.8-11.9.8-13-.4-.4-.5 5.3-2.5 6.4-2.2 1 .2 3.4-2.3 3.6-3.5-.5-3.6-8.8-.4-8.6.2 13.6-3.6-17.8-6.5-17.3-2.6zM32.9-.5c-.4 2.4.8 4.3 3.5 5.5 1.7.8 2.2.8 1.6 0a4.8 4.8 0 00-2.2-1.3c-1.5-.3-2.3-1.7-2.5-4.2-.1-1.8-.3-1-.4 0zm198.9 3c-1.7-2.6 1.9-2.1 0 0zm-1.8.2l.2.1c.4.5 0 1.9-.6 1.8 0-.7 0-1.6.4-2zm-89.2 2.8c2 1.4-.3 1.8-.3.4 0-.3.2-.4.3-.4zm91.6.8c.3.4.3 1.5 0 1.9-.5-.4-.3-1.3 0-1.9zM195.7 8l.2.5c0 .6 0 1.2-.3 1.4-.2.2-.3-.3-.2-1l.3-.9zm-27.9.7c.8.2 1 .5.5 1-1.1.6-2-1.3-.5-1zm101.8 2.4c1.8.4 7.2 2.4 4.5 2.6-1 0-3.2.5-4.6 1-1.3.2-7.6 2.5-8 2-.1-.3.9-1 2.3-1.7 2-.3 2.4-3 5.8-3.9zm.5 4.8h.6c1.7.7.7 1.6 2.5 2 2.6.7 2.4 1.9-.2 2-1.2 0-2.6.4-3.3.9-1.7 1-6.8 2.4-8.3 2.1a20 20 0 014-2.8c2.3-1.3 4-3 4-3.5-.1-.4.1-.7.7-.7zm-72.7.4l1.3 1.5c1.2 1.4 1.5 1.5 2 .6 1.2-1.5 3.7 3.4 5.7 2.4s14 .6 13.2-2c-.4-.9 1.3-.6 1.8.4.6 1 7.8 2.8 7.9 2 0-.9 2.7.7 3.1 1.9.8 2 .2 3-1 2.1a41.4 41.4 0 00-14-2.9c-.5 2 2.4 3 .7 4.2.5-3.4-7.6 2.1-9.2-1.6-.5-.8-4.5.5-4.6.5-1.5 1.4-2.5-2.8-3.1.1-1 .6-2.5-2.1-2.5 1.2 0 1.4-.2 2.2-.3 1.9-.2-.3-.5-3.2-.7-6.4zM38.4 18c-.3 0-.3.2-.1.4.6.7.6 1.2-.1 2.4-.5.8-1.2 1.4-1.6 1.3-.4-.1-.6.1-.3.5.2.4 1.1-.1 2-1.1 1-1.2 2.2-1.7 3.3-1.4 1.7.4 6-.8 5.6-1.6-.1-.2-1.2 0-2.4.4-2.8 1.1-4.4-.8-6.5-.9zm238 .3c.4 0 1 .4 1.3 1.2 1 2.8-.8-1-1.6-.4-.2.2-.4.2-.4 0 0-.6.3-.8.7-.8zm-92.6 1h.2c.7.5 0 1.1-.6 1.4-.3-.5-.2-1.5.4-1.5zm99.1 2.9c1 .2-.1 1.8-.7 1.7-1-.2-.5-1.5.5-1.7h.2zm-248.8.1c-.2 0-.5.3-.7.6-1 1.5-1 1.7.2.9.6-.5 1-1 .8-1.3l-.2-.2zm115 .2l.4 1.4c1 4.5 1.7 6.4 2.5 6.5 1.5-1.2 1-3.2 1.2-5.3.3 2.4 2.7 10 3.8 8.1.5-1.5 0-4 1-1.6 2.9 6.5 1.8-1.8 3 .9.7 1 .2 3.6 1.5 4 1.7-.4 1-3 1.9-.8 1.7 1.8 4.1 3.1 6.7 3.7 4.3.9 5.2.6 3.9-1.3-.7-1.8 5-1.3 5.6.5 2.8 3.9 5.6-1.2 9.3 1.5 4-3 4.4 1.6 5.5.8.7.5 1.3-4.7 1.7-4.1.4 3.5-.6 15.4-1.4 12.9-.7-2.2-.9-2.3-6-3.3-3.3-.2-11-1.2-13.9 0-1.6 1.4-4.3 4.3-4.1 2.4 0-2.4-5.4-5-7.2-5.1-1.7 0-3.4 1.8-2.7-.2 0-3.7-2.5 0-3.8-.1-.2-1.4 1.6-2 1.8-3.4.2-1.5-2.2-1.7-3.8-.3-6.4.7 1.3-7.5-6.2-1.2l-.2-2.1c-.4-4.6-2.7-5-4-.6-.7 2-.7 1-.2-4 .7-6.4.7-6.5 1.7-5 2.5 1.8 1.9-3 2-4.3zm131.7 1.1c.2 0-.4 1-1.4 1.9a15 15 0 00-3 4.8c-1.1 3-2.3 4-7.6 6.6-1.6.8-.9-.2 1.6-2.3 1.3-1.2 2.7-2.9 3-3.9.8-1-4-1.1-3.1-2 .7-.6 10.2-5.2 10.5-5zm-10.6 0c1.2.5 2.5.5 3.6.3 1.6-.2 3-.2 3.2 0 .1.2-13.8 6.5-15.6 7-.8.2-.3-2 .6-2.7.5-.4 1.9-1 3-1.4 1.9 0 3.6-3 5.2-3.1zm21.4 2c-194.4 67-97.2 33.5 0 0zm-7.3 1.3c.3 0 0 1.7-1.4 4.8-.7 1.8-1.2 4-1.1 5 .2 1.2 0 1.5-1.1 1.2-3 .1-5.2 1.9-8 3.2-1.6.8-.6-.3 1.8-2 1.3-1 3.8-4 5.6-6.7 2.3-3.7 3.8-5.6 4.2-5.5zm3.8.3l.1.3c0 .4-.5 1.2-1.1 1.6-1.7 1 0-1.6 1-2zm-65.4.7c2.2.3 10.1 2.8 10.3 4-3.4.7-6.9-1-10.8-1.2-1.7 0-3.3-.3-3.4-.6.7-.4 2-.3 2.6-1.3.3-.5.6-.8 1.3-.9zm46.3 1.3c.5 0-3.8 3.3-5.3 4-.8.3-1.1.3-1-.3 0-.7 3.2-2.6 6.1-3.7h.2zm-67.6.5l1 1.2c2.9 3.7 1.7-.9 3.4.8 4 2.5 7-2.1 12.5 1.6 1.3 1.9 7.6 1.3 7.5 2.2 1.9 3.5 7.7.1 8.1 3.3.2 1.5-.2 1.5-6.2.2-8.3-2-12.4-1.8-12.6.2-.2 2 5.5 5 11.3 6 1.1-.4 3 2 1.3 1.8-.3-.1-3.2.7-6.4 1.7a301.4 301.4 0 01-24.3 7c-.2 0 0-2.2.3-4.7.4-3.2.9-4.5 1.3-4.1 5 1.2 9.1 1.2 11 2 4.4 1.9 6.3 0 8-.2 2.6-.3 4.9-1.7 4.3-2.7-1.2-1.2-5.2-1.7-6-3.3-4.7.5-6.4-2.5-10.1-1.3-.5-2-6.5-1.6-7-.3-.4 1.3-.6.5-.5-3l-.1-6.6c-.2-1.8.9-2.3 1.5-.6 1.8 2 1.6 0 1.7-1.2zM60.2 37.2c.2 0 .5.7 1 2.3.9 3.1.7 4.4-.4 3-1-1-1.4-3.3-1-4.8l.3-.5zm83.8 2.5c.1 0 .2 0 .2.4.1.6 0 1.2-.2 1.5-.5-.5-.3-1.3 0-2zm98.4 2.8c-1 1.2-1.8 4-3.4 4.5-3.8-1-2.2-2.4-.1-3.2zm-81.7.8c-.4.7-1 1.5-1.8 2-.2-1 1-1.6 1.8-2zm-56 2c.2 0 .6.5.7 1.4.4 1.8.3 2-.3 1.9-.3-.1-.7-1-.7-1.8-.1-1 0-1.5.3-1.5zm42.6 1.2v1c-.1 2.5 2 7.2 3.1 6.6 1-1.3 1-6.2 1.1-5.4.4 3.9 1.1 6.2 2 6.4.8-1.7 5.5-2.7 5.5-.9 0 1.8.3 2.8 1 3.1 5.1-3.7 1 .1 6.4 2.4.4.1.7-.7.7-2-.5-4.8 2.2 5 2.8 1.3.8-.6 1.7.3 2.5.8-9.4 3.4-22.5 6.5-33 6.4-.6-.2-.2-2.6 1.4-7.7.7-2.2 1.5-5.8 1.8-8 .4-3.6.5-3.7 1-1.7 2.5 4.1 2.6 0 3.7-2.3zm91.5 2.4c.5 1.4-2.1 4.4-3.7 5.5-.2.1-1 1.7-1.6 3.5-1 2.5-1.7 3.3-5.3 4.4-3.6 1.2-3.9 1.5-3.9 2.6-2 .5-6.4 3.6-7 5.8 1.2 3.3-1.4 1.8-.2 4 .4.7-.3.4-1.4-.8l-3.9-4c-2-2-2.5-4-.5-2 3.2 1 6 2.8 4.5-3 4.7 2.4.5-3.1 3.2-3.4.3-3.7 3.4-7 4.3-9 .9-2.3 1.7-3.2 3.8-4 1.4-.6 2.7-.9 2.8-.7.1.2-1 2-2.4 4-2.9 4-3.5 6.3-2 6.7 1 .2 6.5-4 6.6-5.2 1.5-2 5.7-4.6 6.7-4.4zm35.3 1.2c.2.5-1.4 3.8-1.4 2.3.3-.8.6-1.8 1.4-2.3zm-27 1.7c-1.6.2-1.6 0-.3-1 1.1-.9 1.5.8.3 1zm-26.6-.9c.2 0 .4 0 .3.2-.7 1.2-3.2.6-3.4 2-.5 1.8-1.5 2-3.2 3.1-1.7 1.2-.7 2.7-1.2 3.8-7.6-4-3.7 3.9-3.6 6.9-.2 0-2.7-2.1-5.7-4.8l-5.4-5c6-1.6 12.2-3.1 18-5.2 2-.6 3.5-1 4.2-1zm-29.3 4.7c.7-1.4 1.5-1.2 1.3.3 0 .6-.9 1.3-1.8 1.5l-6.5 1.3c-1.5 0-4.2 1.3-5.5.5 0-10.8 11-.6 12.5-3.6zm-85.2-1c.2 0-.1.2-.8.7-.7.5-1.5.9-1.8.8-1-.2-.5-1 .7-1.2a38.3 38.3 0 002-.4zm145 1.1h.1c.9.5-.2 1.4.5 2 .3.3.2.4-.2.2-.9-.5-1.2-2.2-.5-2.2zm-124 .8c-.3 0-.6 0-.8.2-1.2.8-1.6 2.8-.6 3 2.2-1.5 1.7 0 2.4 2.8.3.7.1 1-.4.7-1-.6-1.2 1.7-.1 2.4 1.4.8 1.7-3.8 2-6.2-.2-1.3-1.4-2.8-2.6-2.9zm65.3 3c1 .2 1.9.7 1.8 1-.7.7-3.8-1-3.4-1.2.4 0 1 0 1.6.2zm-3.2.4h.5c.1.3-.1.5-.6.4-.4.9 1.1 2 2 2.8l-2.4-.6c-1.3-.3-2.4-.1-2.4.3.2.6 2 3.5-2.8 3.5-4.7 0 .2 3.8-2.7 3.1-2.7-.6-.9 3.5-1.8 2.5-.3-.3-.8-.1-1 .5 6 6 11-2 14.8-4.7 2 4.3 2.4-4.4 2.6-2.6.2 1.7 1.8 3 2.4 1.7.2-.5.2-2 0-3.3-.7-4.2.7.5 2.3 1 1 .2 1.1-1.6.3-3-1-1.7-.3-1.3 4.1 2.5 2.2 1.9 3.7 3.5 3.2 3.6-2.8 3-9.2 6.2-11 11.2.3 1.1 1.7 1 2 2-.5 1.3-3.7-.3-3.8-1.5l.2-2.5c-.5-4.2-3.4 2.5-7.5 4.7-4 2.1-4 5-3.2 7 .5 3.8-5.4-5.1-2.4 2.9-1.5 2.5-4.9-4.4-2 4.2-1-2-6.8-3.3-2.5 3.3.2 1.8-7.4-5.6-3.9 2.5 3.1 6.7-4-3-4.4-.6 0 1 1.7 4.3 1.1 5-1.4-1-1.8-2.1-3.7-2.5-2-.4-3-1.3-5.9-5.4-3.6-5-4.1-6-2.3-4.7 1.3.9 6.7 3.6 7 1.8 0-1-1.1-2.3-4.6-5.1 1.3-.3 8.8 2.3 6.5-.5-1.2-1.7-4-1.3-4.5-2.7-.3-.7.5-.7 2.4-.1 6.5 0 3.3-2-.7-4.1l3.3.7c4.1.8 5.7-.7 2.4-2.3-3.5-2.3.7-.8 2.4-1.8 2.2-1.5-3.8-3.5-1.5-3.1 3.2.6 5-1.3 2-2-.8-.2-1.5-.7-1.4-1.1 0-.4.8-.6 1.6-.4.8.2 1.7 0 2-.4-.8-1.8-2.7-2.7.7-3.7 1.4-3.2 1.2-7.2 5.2-7.2 1 0 3.3-.3 5-.8a13.6 13.6 0 013-.5zm42.9 2.8c.2 0 .4.2.3.5-.2.9-1 .8-1.3.2.3-.4.6-.7 1-.7zM49.6 63c2.1 0 3.2.5 6.2 2.6 4 2.7 4.7 3.6 4.6 5.9 0 1.4-1 1.3-13.3-1.5-1.6-.4-10.7-2.2-10.7-5a40.9 40.9 0 0113.2-2zm120.7 0c.1 0 .4.5.5 1.4 0 1.6-1.1-.4-.5-1.3zm-113.8.2c3.1 0 6.4.4 6.4.6-1.4 3.1-2 3.7-4 2.2-1.2-1-2.7-2-3.4-2.2-.9-.5-.5-.6 1-.6zm112.1.4c.2 0 .2 0 0 .2-.3.3-.2 1.6.2 2.8l.9 2.3-1.2-1.8c-1.4-2-1.4-2.9-.2-3.4l.3-.1zm-4.8 1.2c2 .4 2.7 5 2.8 5.7-2.8-3.6-5.2-4-3.1.8-.2 2.5-5.3-3-2.3 3.8.5 1.2.9 2.5.8 3-10.8-9.8-.4.6-3.5 3.6-1.3-1.2-3.8-6.6-4.3-3 4.2 10.6-3.1.6-2.7 4.3 0 .6 0 1-.4 1A101.5 101.5 0 00139.8 68c8.2-.6 16.3-3 24-3.3zm-130 .9c1.2 0 1.8.4 2.4 1.3.7 1 2.4 2 4.9 2.8 2 .7 4 1.6 4.4 2.1.8 1 5 1.7 7.4 1.2 1.8-.5 5.5.9 6.6 2.4.2 2.1 1.3 6.3 1.2 7.5-.7 2.4-.6-1.8-1.3-1.7-1.8 1.1 1.4 4.1-.4 5-1.8 1-2.4.2-3-4.4-.9-5.5-2-5.8-2.3-.7-.2 2.1-.6 3.7-1 3.6C37.5 74.2 41.5 79.6 31.8 74c-1.3-.4-4.2-3.8-4.4-3.2-.3.5-.8.3-1.7-.5-1.5-2.2 5.6-4.4 8.1-4.6zm136 5.2h.3c.4.1.3.5-.2 1-.5.4-1 .5-1.1.2-.3-.5.3-1.2 1-1.2zm41.1 0a24 24 0 014 3.8c5.1 5.5-5.1 10.6-3.2 13.2-.6 2.3-2.6.7-3.1 4.4 0 2-3 10.2-.1 11.6-1.4 4.9-1.2-.8-4.6 2.1-1.5 7-4.1-.6-4.1 5.1l-1 4.2c-2.5-8.4-6-7.2-3.7.3l-4.7-2.5c-1.6.8-.9 4.2-.9 6.4-.2-.6-1.9-4.3-2.4-4 0 3.2-7.8 3.3-7.1 6.4a37.8 37.8 0 01-6.6-7.6c0-.2 1 0 2 .6 2-5.5 2.6 1.4 6.5-2.5.7-2-2-2.5-3.7-3.4 18.2 3.7 3-3.6 4.8-3.1 10.4 1.3 2.6-1 1.6-3 6.3-1.8 7-2.3.4-4h3c3.6-.2 4.5-1 3.1-2.7-1.6-2.4 1.2-.8 2.2-2.9.7-2.1-3.3-.4-3.3-1.8.8-1 2.2-.5 3.4-.3 1.3 0 2.6-2.1 6.2-1 0-3.5 2.7-4.7 2.7-4.7 2.8 4.8 3.6-6.6 4.8-2.7 4.9-6.8 6.2-8.6 4.8-10.4l-1-1.4zM49.5 73.8l-.7.4c-1.2.8-1.9-.3-2.8.4-1.3.8-1.5 1.6-.4 1 1.8-.8 4.3.4 3.9-1.8zm231.9.5c.3 3-2.5 1.3-.3.1h.2zm-87 6.7c.2 0 .6.3 1 .8.7 1.4-.2 2.3-1.5 2.8-.3-.1 0-3.2.4-3.5h.1zm-153.6.6h.3c1.4.2 1.5.6.2.9-.6.1-1.1 0-1.2-.4-.1-.3.2-.6.7-.5zm2.5 1.1h.3c.6.2 1.2.7 1.3 1 .2.5 2.3 1.8 4.7 2.9 4.3 1.9 5.9 3.5 5.6 5.8 0 .8-.5.6-1.5-.8-.8-1-2.8-2.4-4.4-3.1-2.7-1.1-7.3-5.6-6-5.8zm148.3 3.1c.8.7 1.2 1.5 2 2.4-1.1.6-2.1-1.5-2-2.4zm37.8 1.6c.4 0 .6.4.5 1.2-.4 1-3-.5-.5-1.2zm-75 .6c.4.1.8.6 1 1 0 1.8-2.1-.9-1-1zm2 2.4c.3.4.3 1.5 0 1.9-.5-.5-.3-1.3 0-2zM63.7 93c1.2 0 3 .8 6.3 2 15.8 6.1 32.7 10.7 48.4 16.4 6.8 2.4 7 2.5 4.8 3.1-13.9 5.6-33 5.4-48 8.1-3.7 4-16.3-.8-19.5 2.5-.2.4-1 .6-1.7.5-2.2-6.7 5.3-31.8 9.7-32.6zM238 95.4c1.2.2 1 2.7-.2 2.2-1.4-.9-1.2-1.7.2-2.2zm-79 2.7c.3 0 .7.4 1.3 1.5l1.3 2c-2.3-.3-5-2.6-2.6-3.5zm77.5.7c.7 0 1.8.6 1.8 1.2-1 1.6-4.5-1-1.8-1.2zm21 3.7c-.3.6-1.6 2-2.2 1.5-.3-.3-.5-.8-.4-1 0-.3.2-.3.4 0 .9.5 1.4-.1 2.2-.5zm-101 4.3c.9 0 2.7.3 5.2 1 6 1.7 6 1.7 9.9 6.2 2.1 2.5 3.9 4.6 3.9 4.8-2.2-.6-9.5-2.9-8.7-.2.2.5 1 1.1 2 1.3 2 .6 4.1 2.5 2.1 2.1-4.8-.9-7.5-1-8.5 0-1.2 1-1.3 1 3.3 3.4l2.8 1.4-3.2-.5c-2.8 0-6.4-2.3-9.3-1.3-1.8.3-3.7-3.2-5-4.5-3.4-3.3-2.9-3.9 1-1.2 4 2.7 8.2 3.9 8.4 2.4 0-.6-.5-2-1.3-3-2.3-1.7-4.7-4.4-5.7-5-2.5-1.5-.6-1.3 2.7.2 5.9 2.7 7.9 3.2 9 2.5 1-.6 1-.8 0-2.3-1.5-1.8-4-3.5-6.2-4.6-3.3-1.8-4-2.7-2.5-2.7zm108 .7c.3.5-.3 1.4-.7 1.7-.9.4-.8.1.1-1.2l.5-.5zm-117.6 10c.3.7-.3 1.5-.8 1.9-.5-.1 0-1.5.6-1.8h.1l.1-.1zm74.8 1.5l-4.3 1c-3.2 2-7.4 3.3-8.5 6.2-1.6 4.7 7.2.9 8.5-.6 1.3-1.5 2-2.6 3-3.6 1.8-1.8 2.3-3 1.3-3z" fill="#500" fill-opacity=".2"/><path d="M-.8-.7V.5l.2.6c.3 1 0 1.9 0 2.8l.4.7.1 1.4s0 0 0 0l.2.3.2 1.5-.1 1.6v.1c.4 1 .5 1.8.4 2.8l.3.5.1 1.5v1.2c-.3-2-1-2-1.8-1.2v114.2h28l.2-.1c.5-.8 1.5-1 2.4-1l1.6.2H33c1.4.2 1.2.2 2.2.5 0 0 0 0 0 0s0 0 0 0c.4-.2 1.6-.2 2-.2H56a92.7 92.7 0 001.9.6s0 0 0 0H57.8 110c2.8-1 6-1.7 10-1.7h4.8l2.2.6c.6 0 2.1-.2 2.3-.1l1.6.6a22.6 22.6 0 013.7 0H172.7c2 0 2.1 0 3.2.6h153V41.1c-.8.5-1.5.7-1.5-.5h0c0-.6 0-1.3.2-1.8 0-.3 0-.5.2-.8v-.8c0-.5 0-.7.2-1.1V35v-.2-1c0-.7 0-.7.8-.5v-3.5s0 0 0 0v-.6h-.1l-.2-.7-.4-1.5v-1-1.4-.1c-.2-.6-.2-1-.1-1.6v-1V19.5 18v-4c0-1.3.1-2.1.3-2.6l-.1-.3c-.3-.6-.2-.6-.2-1.2V9 6.8s0 0 0 0c-.3-.6-.3-1-.2-1.6l-.1-.2s0 0 0 0l-.2-.4c-.2-.6-.1-.5-.1-1.1v-.9-1.2V.4v-.8h-.2l-.6.1H325h.1-5.5c-.5 0-.4 0-.8-.2H317a4 4 0 01-.6 0l-1.4.2H302c.3 0 .4-.2.5-.4h-.5v.4s0 0 0 0H296.8l-.3.2h-4.3c-.5 0-1 0-1.3-.2 0 0 0 0 0 0h-2.2c-.4 0-1 0-1.3-.2h.1-.6v-.1l-.7-.1h-5.8-7.4c-.2.2-.4.3-.9.2H268s-.3 0-.2-.1c0 0 0 0 0 0h-.6l-.4-.1h-11.6l-.2.2c-.5.2-1 0-1.6 0h-.2-.1c-.3.2-.4.3-1 .3h-.7s0 0 0 0h-.3s0 0 0 0c-.6 0-.7 0-.6-.5h-21.2c-.6.3.6 0-2 .4-.6.3-1.2.6-2 .5H215a6 6 0 01-3.5-1H186c-1 .3-2.1.4-3.7.4H169c.1.6-.3 1-1.8.7-.5 0-.9 0-1.3-.2l-.3-.2h-.3a6 6 0 01-2.7-.5l-1.2.1-1.4-.1a3 3 0 01-.3-.1h-11v.2h-.8l-.4-.1-1.4.4h-8.3c-1.3-.1-.8-.3-2.8.4h-20.1s.3-.1.2 0h-3l-1.3-.2-1.4-.4h-5.8c-1.7 0-3.2-.1-4.6-.3H78.4c0 .9 0 .7 0 0zm302.6.4v-.4h-.4c0 .2.2.4.4.4zm-244 128.8h-.3H57.8s0 0 0 0zM147.7-.7h-.3.4zm170.6 0l.3.1h.1l-.4-.1zM228-.5s0 0 0 0l-.6.2h.3l.3-.2zM-.8 5h.1s0 0 0 0 0 0 0 0zm329 30.9h-.1s0 0 0 0zm-.2 1.7s0 0 0 0 0 0 0 0 0 0 0 0 0 0 0 0zm0 0s0 0 0 0v.1c0 .2.1.3.3.4 0 0 0 0 0 0l.1-.1v-.3s0 0 0 0h-.4zm.4.4s0 0 0 0h.1c.1 0 .2 0 .3-.2 0 0 0 0 0 0h0l-.4.2zm0 0s0 0 0 0h-.1l.1.1s0 0 0 0 0 0 0 0zm-.5-.3s0 0 0 0 0 0 0 0 0 0 0 0 0 0 0 0zm-200.7 89.8a124.6 124.6 0 003.4.7l-.5-.2h-.1s0 0 0 0c-1-.3-1.5-.4-2.7-.5h-.1zm4 .6l1 .4h1.5l-2.5-.4z" opacity=".4" fill="none" stroke="#000" stroke-width=".026458" stroke-linejoin="round" paint-order="stroke fill markers"/><path d="M-.8-.7V.5l.2.6c.3 1 0 1.9 0 2.8l.4.7.1 1.4s0 0 0 0l.2.3.2 1.5-.1 1.6v.1c.4 1 .5 1.8.4 2.8l.3.5.1 1.5v1.2c-.3-2-1-2-1.8-1.2v114.2h28l.2-.1c.5-.8 1.5-1 2.4-1l1.6.2H33c1.4.2 1.2.2 2.2.5 0 0 0 0 0 0s0 0 0 0c.4-.2 1.6-.2 2-.2H56a92.7 92.7 0 001.9.6s0 0 0 0H57.8 110c2.8-1 6-1.7 10-1.7h4.8l2.2.6c.6 0 2.1-.2 2.3-.1l1.6.6a22.6 22.6 0 013.7 0H172.7c2 0 2.1 0 3.2.6h153V41.1c-.8.5-1.5.7-1.5-.5h0c0-.6 0-1.3.2-1.8 0-.3 0-.5.2-.8v-.8c0-.5 0-.7.2-1.1V35v-.2-1c0-.7 0-.7.8-.5v-3.5s0 0 0 0v-.6h-.1l-.2-.7-.4-1.5v-1-1.4-.1c-.2-.6-.2-1-.1-1.6v-1V19.5 18v-4c0-1.3.1-2.1.3-2.6l-.1-.3c-.3-.6-.2-.6-.2-1.2V9 6.8s0 0 0 0c-.3-.6-.3-1-.2-1.6l-.1-.2s0 0 0 0l-.2-.4c-.2-.6-.1-.5-.1-1.1v-.9-1.2V.4v-.8h-.2l-.6.1H325h.1-5.5c-.5 0-.4 0-.8-.2H317a4 4 0 01-.6 0l-1.4.2H302c.3 0 .4-.2.5-.4h-.5v.4s0 0 0 0H296.8l-.3.2h-4.3c-.5 0-1 0-1.3-.2 0 0 0 0 0 0h-2.2c-.4 0-1 0-1.3-.2h.1-.6v-.1l-.7-.1h-5.8-7.4c-.2.2-.4.3-.9.2H268s-.3 0-.2-.1c0 0 0 0 0 0h-.6l-.4-.1h-11.6l-.2.2c-.5.2-1 0-1.6 0h-.2-.1c-.3.2-.4.3-1 .3h-.7s0 0 0 0h-.3s0 0 0 0c-.6 0-.7 0-.6-.5h-21.2c-.6.3.6 0-2 .4-.6.3-1.2.6-2 .5H215a6 6 0 01-3.5-1H186c-1 .3-2.1.4-3.7.4H169c.1.6-.3 1-1.8.7-.5 0-.9 0-1.3-.2l-.3-.2h-.3a6 6 0 01-2.7-.5l-1.2.1-1.4-.1a3 3 0 01-.3-.1h-11v.2h-.8l-.4-.1-1.4.4h-8.3c-1.3-.1-.8-.3-2.8.4h-20.1s.3-.1.2 0h-3l-1.3-.2-1.4-.4h-5.8c-1.7 0-3.2-.1-4.6-.3H78.4c0 .9 0 .7 0 0zm302.6.4v-.4h-.4c0 .2.2.4.4.4zm-244 128.8h-.3H57.8s0 0 0 0zM147.7-.7h-.3.4zm170.6 0l.3.1h.1l-.4-.1zM228-.5s0 0 0 0l-.6.2h.3l.3-.2zM-.8 5h.1s0 0 0 0 0 0 0 0zm329 30.9h-.1s0 0 0 0zm-.2 1.7s0 0 0 0 0 0 0 0 0 0 0 0 0 0 0 0zm0 0s0 0 0 0v.1c0 .2.1.3.3.4 0 0 0 0 0 0l.1-.1v-.3s0 0 0 0h-.4zm.4.4s0 0 0 0h.1c.1 0 .2 0 .3-.2 0 0 0 0 0 0h0l-.4.2zm0 0s0 0 0 0h-.1l.1.1s0 0 0 0 0 0 0 0zm-.5-.3s0 0 0 0 0 0 0 0 0 0 0 0 0 0 0 0zm-200.7 89.8a124.6 124.6 0 003.4.7l-.5-.2h-.1s0 0 0 0c-1-.3-1.5-.4-2.7-.5h-.1zm4 .6l1 .4h1.5l-2.5-.4z" opacity=".4" fill="none" stroke="#000" stroke-width=".026458" stroke-linejoin="round" paint-order="stroke fill markers"/><path d="M-.8-.7V.5l.2.6c.3 1 0 1.9 0 2.8l.4.7.1 1.4s0 0 0 0l.2.3.2 1.5-.1 1.6v.1c.4 1 .5 1.8.4 2.8l.3.5.1 1.5v1.2c-.3-2-1-2-1.8-1.2v114.2h28l.2-.1c.5-.8 1.5-1 2.4-1l1.6.2H33c1.4.2 1.2.2 2.2.5 0 0 0 0 0 0s0 0 0 0c.4-.2 1.6-.2 2-.2H56a92.7 92.7 0 001.9.6s0 0 0 0H57.8 110c2.8-1 6-1.7 10-1.7h4.8l2.2.6c.6 0 2.1-.2 2.3-.1l1.6.6a22.6 22.6 0 013.7 0H172.7c2 0 2.1 0 3.2.6h153V41.1c-.8.5-1.5.7-1.5-.5h0c0-.6 0-1.3.2-1.8 0-.3 0-.5.2-.8v-.8c0-.5 0-.7.2-1.1V35v-.2-1c0-.7 0-.7.8-.5v-3.5s0 0 0 0v-.6h-.1l-.2-.7-.4-1.5v-1-1.4-.1c-.2-.6-.2-1-.1-1.6v-1V19.5 18v-4c0-1.3.1-2.1.3-2.6l-.1-.3c-.3-.6-.2-.6-.2-1.2V9 6.8s0 0 0 0c-.3-.6-.3-1-.2-1.6l-.1-.2s0 0 0 0l-.2-.4c-.2-.6-.1-.5-.1-1.1v-.9-1.2V.4v-.8h-.2l-.6.1H325h.1-5.5c-.5 0-.4 0-.8-.2H317a4 4 0 01-.6 0l-1.4.2H302c.3 0 .4-.2.5-.4h-.5v.4s0 0 0 0H296.8l-.3.2h-4.3c-.5 0-1 0-1.3-.2 0 0 0 0 0 0h-2.2c-.4 0-1 0-1.3-.2h.1-.6v-.1l-.7-.1h-5.8-7.4c-.2.2-.4.3-.9.2H268s-.3 0-.2-.1c0 0 0 0 0 0h-.6l-.4-.1h-11.6l-.2.2c-.5.2-1 0-1.6 0h-.2-.1c-.3.2-.4.3-1 .3h-.7s0 0 0 0h-.3s0 0 0 0c-.6 0-.7 0-.6-.5h-21.2c-.6.3.6 0-2 .4-.6.3-1.2.6-2 .5H215a6 6 0 01-3.5-1H186c-1 .3-2.1.4-3.7.4H169c.1.6-.3 1-1.8.7-.5 0-.9 0-1.3-.2l-.3-.2h-.3a6 6 0 01-2.7-.5l-1.2.1-1.4-.1a3 3 0 01-.3-.1h-11v.2h-.8l-.4-.1-1.4.4h-8.3c-1.3-.1-.8-.3-2.8.4h-20.1s.3-.1.2 0h-3l-1.3-.2-1.4-.4h-5.8c-1.7 0-3.2-.1-4.6-.3H78.4c0 .9 0 .7 0 0zm302.6.4v-.4h-.4c0 .2.2.4.4.4zm-244 128.8h-.3H57.8s0 0 0 0zM147.7-.7h-.3.4zm170.6 0l.3.1h.1l-.4-.1zM228-.5s0 0 0 0l-.6.2h.3l.3-.2zM-.8 5h.1s0 0 0 0 0 0 0 0zm329 30.9h-.1s0 0 0 0zm-.2 1.7s0 0 0 0 0 0 0 0 0 0 0 0 0 0 0 0zm0 0s0 0 0 0v.1c0 .2.1.3.3.4 0 0 0 0 0 0l.1-.1v-.3s0 0 0 0h-.4zm.4.4s0 0 0 0h.1c.1 0 .2 0 .3-.2 0 0 0 0 0 0h0l-.4.2zm0 0s0 0 0 0h-.1l.1.1s0 0 0 0 0 0 0 0zm-.5-.3s0 0 0 0 0 0 0 0 0 0 0 0 0 0 0 0zm-200.7 89.8a124.6 124.6 0 003.4.7l-.5-.2h-.1s0 0 0 0c-1-.3-1.5-.4-2.7-.5h-.1zm4 .6l1 .4h1.5l-2.5-.4z" opacity=".4" fill="none" stroke="#000" stroke-width=".026458" stroke-linejoin="round" paint-order="stroke fill markers"/></svg>