<svg xmlns="http://www.w3.org/2000/svg" viewBox="0 0 180 60" width="180" height="60"><path d="M17.636 45.09c15.162 0 27.452-12.292 27.452-27.454 0-6.718-2.42-12.864-6.426-17.636C51.038 3.973 60 15.565 60 29.261 60 46.24 46.239 60 29.261 60 15.565 60 3.973 51.038 0 38.662a27.33 27.33 0 0017.636 6.428z" fill="#ffd93b"/><path d="M48.26 5.135c4.111 5.224 6.582 11.8 6.582 18.966 0 16.977-13.762 30.739-30.739 30.739-7.166 0-13.742-2.47-18.966-6.582C10.762 55.398 19.467 60 29.263 60c16.978 0 30.739-13.761 30.739-30.739 0-9.796-4.601-18.499-11.742-24.126z" fill="#f4c534"/><g fill="#ffd83b"><path d="M10.259 24.441l-5.124-4.995 7.082-1.028L15.385 12l3.166 6.418 7.081 1.028-5.124 4.995 1.209 7.053-6.332-3.33-6.334 3.33zM30.589 16.395l-2.657-2.59 3.671-.532 1.64-3.327 1.642 3.327 3.67.533-2.656 2.59.628 3.653-3.283-1.725-3.283 1.725z"/></g><g fill="#f09d4b"><path d="M148.367-.492c-.594 0-1.076.517-1.076 1.154V7.59c0 .637.482 1.154 1.076 1.154.593 0 1.075-.517 1.075-1.154V.662c0-.637-.482-1.154-1.075-1.154zM148.362 51.773c-.594 0-1.075.482-1.075 1.075v6.454a1.076 1.076 0 002.15 0v-6.454c0-.593-.481-1.075-1.075-1.075zM178.869 29.436h-7.162c-.66 0-1.194.517-1.194 1.154 0 .638.535 1.155 1.194 1.155h7.162c.659 0 1.194-.517 1.194-1.155 0-.637-.535-1.154-1.194-1.154zM125.849 30.59c0-.637-.547-1.154-1.22-1.154h-7.32c-.673 0-1.22.517-1.22 1.154 0 .638.547 1.155 1.22 1.155h7.32c.673 0 1.22-.517 1.22-1.155zM165.271 14.977c.286 0 .573-.11.79-.327l6.409-6.409a1.116 1.116 0 10-1.58-1.58l-6.408 6.409a1.116 1.116 0 00.79 1.907zM130.835 46.017l-6.408 6.408a1.116 1.116 0 101.58 1.58l6.408-6.409a1.116 1.116 0 10-1.58-1.58zM165.661 46.017a1.116 1.116 0 10-1.58 1.58l6.409 6.408a1.114 1.114 0 001.58 0 1.116 1.116 0 000-1.58zM126.106 6.362a1.116 1.116 0 10-1.58 1.58l6.409 6.408a1.114 1.114 0 001.58 0 1.116 1.116 0 000-1.58zM122.02 21.222l3.41 1.293c.151.057.307.084.46.084.485 0 .945-.271 1.137-.72.254-.589-.05-1.26-.678-1.497l-3.411-1.293c-.629-.238-1.343.046-1.596.636-.253.588.05 1.258.679 1.497zM139.3 9.528a1.231 1.231 0 001.133-1.712l-1.443-3.401a1.231 1.231 0 00-2.266.961l1.443 3.4c.198.47.655.752 1.134.752zM174.622 21.222l-3.41 1.293a1.31 1.31 0 01-.459.084c-.485 0-.945-.271-1.138-.72-.253-.589.05-1.26.678-1.497l3.412-1.293c.629-.238 1.342.046 1.596.636.253.588-.05 1.258-.68 1.497zM122.52 39.595l3.41-1.292a1.31 1.31 0 01.459-.084c.485 0 .945.271 1.138.72.253.589-.05 1.259-.678 1.497l-3.412 1.293c-.629.238-1.342-.046-1.596-.636-.253-.588.05-1.258.68-1.498zM173.922 39.295l-3.41-1.292a1.31 1.31 0 00-.459-.084c-.485 0-.945.271-1.137.72-.254.589.05 1.26.678 1.497l3.41 1.293c.63.238 1.343-.046 1.597-.636.253-.588-.05-1.258-.68-1.498zM156.746 9.528a1.231 1.231 0 01-1.133-1.712l1.443-3.401a1.231 1.231 0 012.266.961l-1.442 3.4c-.198.47-.655.752-1.134.752zM139.8 50.937a1.231 1.231 0 011.133 1.712l-1.442 3.4a1.231 1.231 0 01-2.266-.961l1.442-3.4c.198-.47.655-.751 1.134-.751zM157.146 50.637a1.231 1.231 0 00-1.133 1.712l1.443 3.4a1.231 1.231 0 002.266-.961l-1.442-3.4a1.231 1.231 0 00-1.134-.751z"/></g><circle cx="148.163" cy="30.178" r="20" fill="#f09d4b" stroke="#f09d4b" stroke-width=".7"/><circle cx="148.163" cy="30.178" r="15" fill="#f0b619"/></svg>