<svg xmlns="http://www.w3.org/2000/svg" viewBox="0 0 323.32 145.79" height="551" width="1222"><defs><clipPath clipPathUnits="userSpaceOnUse" id="a"><path d="M324.79 174.42a24.26 22.65 0 01-3.05-31.84 24.26 22.65 0 0134.1-2.97 24.26 22.65 0 013.3 31.82 24.26 22.65 0 01-34.07 3.2" opacity=".66" fill="#0ff" stroke="#ffc300" stroke-width="0" stroke-dashoffset="3.9"/></clipPath></defs><g transform="matrix(7.39389 0 0 7.9224 -2366.42 -1166.03)" fill="#f09d4b"><path d="M327.65 163.06c0 .68-.3 1.2-.89 1.59-.57.39-1.39.58-2.44.58-1.56-.2-3.32-.61-3.33-2.16v-15.41c0-.08.03-.14.09-.2.6-.08 2.22-.24 2.23.57v15.03c.04.59.52.76 1.01.76.54 0 .81-.24 1-.76.26-.74.12-12.43.12-13.46 0-.99 2.28-.85 2.28-.15zm5.69-12.94c1.45.06 2.73.83 2.76 2.2v4.64c-.32 1.97-2.67 1.5-3.46 1.53 1.83.13 3.46-.38 3.46 1.43v4.98c-.06.42-.75.27-1.1.27-.57-.02-.77-.31-.84-.75v-4.5c-.26-.89-.88-.77-1.69-.77v5.27c-.04.49-.4.75-.84.75-.3-.01-1.1.13-1.1-.27l-.05-13.89c-.1-1.35 1.66-.93 2.86-.89zm-.87 1.43v6.17c.76.06 1.56-.07 1.69-.76v-4.65c-.25-.82-.9-.8-1.69-.76zm12.13 6.63c.23.01.27.11.33.27v4.62c0 .67-.28 1.2-.83 1.59-.54.39-1.3.58-2.28.58-1.53-.07-3.11-.6-3.1-2.17l.03-10.93c.08-1.64 1.82-2.18 3.11-2.17 3.15.03 2.73 1.05 2.9 3.86-.08.63-.13.73-1.87.83l-.1-2.52c-.04-1-1.83-.72-1.87 0l-.04 10.93c.03 1.02 1.84.72 1.88 0v-3.47c-.65 0-.97-.25-.97-.74-.01-.35-.01-.6.34-.68zm7.1-8.15c.21 0 .27.1.36.26l2.03 14.56c-.06.26-.27.28-.48.32-.86-.05-1.66.12-2.01-.64l-.19-2.07h-1.52l-.19 2.07c-.16.48-.66.64-1.1.64-.52-.05-1.21.15-1.39-.32l2.03-14.56c.06-.2.2-.22.37-.26zm-1.69 11h1.28l-.58-9.94zm12.66-6.37c-2.16-.3-.66-2.77-1.87-2.94-1.99-.29-2.25.82-1.94 2.09.48 1.86 2.11 2.86 3.3 4.28 1.1 1.46 2.03 4.07 1.26 5.71-.9 1.4-2.22 1.44-3.41 1.44-1.62 0-3.66-.58-3.69-2.17v-3.1c0-.66 1.92-.66 2.29-.06.74 1.2-.53 3.02.55 3.71 2.85 1.08 1.85-2.89 1.21-4.1-1.25-1.86-3.53-3.3-3.85-5.38-.52-3.29 1.08-3.96 3.49-4.2 1.16 0 2.08.16 2.7.58 1.24.83 1.6 4.39-.04 4.14z"/></g></svg>