<svg xmlns="http://www.w3.org/2000/svg" data-name="Layer 1" width="1155.41" height="796.48"><path d="M356.76 40.24C395.96 4.93 457.5-2.26 513.51.55c175.93 8.83 334.74 94.59 472.11 191.6 49.73 35.12 98.69 73 131 121.33 65.72 98.45 46.22 234.84-45.15 315.94-31.09 27.6-68.78 48.75-107.47 67.51-68.79 33.34-143 60.1-221.09 67.72-55.68 5.43-112 1-167.4-6.56-154.65-21.18-306.45-68-433.69-148.14-55.83-35.14-108.43-78.83-131.43-135.71S2.11 345.35 59.09 311.7c23.57-13.92 51.74-20.2 79.33-26.11 40.61-8.68 81.86-17.25 118.51-34.91 37.85-18.24 82.66-53.52 75.17-93.9-8.04-43.29-14.49-81.34 24.66-116.54z" fill="#fbd685"/><path d="M256.7 447.81s10.37-7.43 21.1-2.84c0 0-3 6.38-16.37 6.3zM255.41 448.24s-2.77 12.45 5.67 20.53c0 0 4.68-5.27-.64-17.53zM241.7 436.91s.38-10.51 24.18-7.94c0 0 .37 6.76-7.81 10.28s-12.1.99-16.37-2.34zM240.23 436.89s-9.89 3.6-.11 25.46c0 0 6.54-1.73 7.37-10.6s-2.79-11.8-7.26-14.86zM226.26 422.54s-2-17.2 22.24-16.36c0 0 2.31 15.55-17.81 20.34zM209.53 403.68s2.57-19.67 27-14.78c0 0 .74 16.9-22.84 19.29zM197.08 383.99s4.82-19.29 29-14.47c0 0-5 17.35-27.27 17.93zM185.23 364.76s4.67-20 28-14.92c0 0-7 19.07-26.37 18.23zM177.36 346.36s3.25-24.33 25-19.81c0 0-5.42 22.23-23.3 23.26zM169.79 324.05s4.07-24.55 26.15-18.3c0 0-7.68 23.35-24.5 21.61zM164.83 303.24s7-24.66 23.92-24.65c0 0-7.15 26-22.32 29.48zM161.41 282.82s7.53-29.66 21.35-27.92c0 0-5.13 22.64-20.69 32.47zM158.98 258.4s7.17-24.74 20.69-26.24c0 0-4.6 24.25-20.15 32.58zM156.46 235.68s9.18-24.85 18.12-25.75c0 0-3.47 24.25-17.07 29.73zM154.53 214.5s5.2-26.81 14.06-29.35c0 0-.39 21.77-13.09 31.3zM150.1 186.86s5.73-21.42 12.85-24.93c0 0-.48 25-11 30zM146.6 168.72l-2.75-37.28s14.6 27.66 4 43.83zM134.7 132.02s-10.79-26.89-13.19-28.32c0 0 19.8 17 18.8 39.78zM225.6 422.44s-17.25-1.59-15.8 22.63c0 0 15.6 1.93 19.89-18.31zM208.7 403.06s-19.82.69-17.26 25.44c0 0 16.75 2.34 21.36-20.91zM196.95 385.61s-18.32-7.75-29 14.47c0 0 16.89 6.39 30.72-11zM184.83 364.96s-18.76-8.28-28.77 13.42c0 0 19.45 5.87 30.42-10.12zM177.61 346.87s-18.38-16.26-31.87 1.42c0 0 18.65 13.24 32.83 2.32z" fill="#ca313c"/><path d="M170.77 323.43s-18.5-16.64-31.85 2c0 0 20.57 13.45 32.63 1.59zM166.63 302.45s-14.57-21.1-30.57-15.66c0 0 15.14 22.36 30.61 20.75zM161.82 282.67s-14.91-26.72-27.81-21.49c0 0 10.78 20.56 28.33 26.05zM159.87 256.97s-15.06-20.9-28.29-17.77c0 0 12.47 21.3 29.91 23.93zM157.95 235.14S146 211.5 137.02 211.63c0 0 6.21 23.7 20.34 27.58zM154.95 213.96s-13.2-23.9-22.42-23.6c0 0 7.08 20.6 22.09 25.76zM152.12 188.24s-9.95-19.82-17.63-21.81c0 0 5.53 24.4 16.82 27.2z" fill="#ca313c"/><path d="M145.48 168.06l-21.69-30.44s6.43 30.62 24.91 36.28zM130.11 134.71s-24.41-15.53-25.41-18.16c0 0 13 22.58 35.66 25.78zM128.4 127.37s-28.36-25.25-35.34-24.95c0 0 22.6.16 36 23.53z" fill="#ca313c"/><path d="M152 192.24l-1 .17c-6.68-40.05-15.09-63.54-23.67-66.16l.29-1c9.08 2.76 17.54 25.91 24.38 66.99z" fill="#444053"/><path d="M163.25 288.12l-1.5.18c-.46-3.74-.86-7.58-1.17-11.4-2.71-33.25-6.11-63.75-9.91-86.57l.83-1.11c3.81 22.86 7.87 54.26 10.59 87.56.31 3.8.7 7.61 1.16 11.34z" fill="#444053"/><path d="M285.53 465.89c-.27-.11-27.23-10.93-55.83-38.11a218.64 218.64 0 01-41.84-54.7c-13.71-25.41-22.68-56.95-26.47-87.77l1.6.68c8.5 69.18 41.92 115.42 68 140.27 28.32 26.94 55 37.65 55.25 37.75z" fill="#444053"/><g opacity=".7"><path d="M298.54 384.45s12.11-4 21 3.57c0 0-4.77 5.2-17.51 1.14zM297.18 384.47s-6.34 11.07-.69 21.28c0 0 6-3.63 4.61-16.92zM287.45 369.58s3.5-9.92 25.45-.39c0 0-1.65 6.57-10.52 7.49s-11.83-2.67-14.93-7.1zM286.06 369.13s-10.5.5-7.68 24.27c0 0 6.77.3 10.2-7.93s.84-12.1-2.52-16.34zM277 351.24s3.19-17 26.09-9c0 0-2.41 15.53-23.05 14.12zM266.64 328.24s8.3-18 30.14-6.08c0 0-4.32 16.35-27.55 11.62zM260.6 305.79s10.35-17 32-5.19c0 0-10 15.06-31.37 9zM255.01 283.9s10.4-17.68 31.19-5.91c0 0-12.35 16.12-30.59 9.56zM252.97 263.99s10.34-22.26 29.78-11.46c0 0-11.79 19.6-29.16 15.27zM252.39 240.44s11.19-22.23 30.4-9.69c0 0-14.27 20-29.81 13.34zM253.86 219.07s14-21.46 30.16-16.42c0 0-14.57 22.73-30.08 21.51zM256.7 198.58s16-26.07 28.69-20.3c0 0-11.64 20.09-29.41 24.84zM261.59 174.55s14.22-21.49 27.56-18.9c0 0-11.6 21.79-28.92 25.11zM265.96 152.1s16.15-21 24.95-19.18c0 0-10.53 22.12-25.14 23.29zM270.41 131.31s12.94-24 22.16-23.84c0 0-6.86 20.67-21.81 26zM274.4 103.6s11.85-18.74 19.69-20c0 0-7.9 23.74-19.42 25.41zM276.46 85.24l8.47-36.42s5.71 30.75-9.23 43zM276.04 46.67s-2.31-28.88-4.17-31c0 0 13.86 22.08 6.12 43.58zM276.39 350.97s-16-6.64-21.81 16.92c0 0 14.31 6.48 24.43-11.57zM266.02 327.44s-19.13-5.23-24.05 19.16c0 0 15.3 7.22 26.62-13.61zM260 307.29s-15.18-12.85-32 5.19c0 0 14.22 11.13 32.61-1.38zM254.58 283.97s-15.46-13.48-31.46 4.25c0 0 16.82 11.4 32.05-.6z" fill="#ca313c"/><path d="M253.07 264.56s-12.72-21-30.86-8.14c0 0 13.87 18.2 30.66 12zM253.51 240.14s-12.72-21.39-31-7.55c0 0 15.64 19 30.67 11.23zM255.79 218.87s-7.63-24.47-24.52-24c0 0 7.8 25.86 23.05 28.92zM257.08 198.56s-6.28-29.95-20.15-28.79c0 0 4.18 22.84 19.3 33.31zM262.88 173.45s-8.16-24.44-21.73-25.39c0 0 5.57 24.05 21.44 31.75zM267.54 152.03s-4.38-26.12-13-28.67c0 0-1.11 24.47 11.22 32.39zM270.97 130.92s-5.49-26.75-14.38-29.2c0 0 .63 21.77 13.43 31.16zM275.91 105.56s-3.6-21.88-10.34-26.07c0 0-2 24.94 8 31z" fill="#ca313c"/><path d="M275.59 84.24l-11.66-35.52s-3 31.14 13 42.05zM270.84 47.87s-18.73-22.11-18.87-24.9c0 0 5.73 25.43 26.37 35.22zM271.39 40.36S251.82 7.81 245.07 6.01c0 0 21.52 6.89 27.32 33.16z" fill="#ca313c"/><path d="M274.63 109.24l-1-.14c5.53-40.21 4.5-65.15-2.92-70.2l.57-.83c7.87 5.37 9.02 29.98 3.35 71.17z" fill="#444053"/><path d="M256.83 204.24l-1.49-.27c.68-3.71 1.44-7.49 2.28-11.24 7.31-32.55 13.14-62.67 16.29-85.59l1.13-.82c-3.16 23-8.63 54.15-15.94 86.75-.84 3.67-1.6 7.43-2.27 11.17z" fill="#444053"/><path d="M320.7 410.29c-.22-.18-22.74-18.53-42-53a218.47 218.47 0 01-23.66-64.67c-5.53-28.34-4.72-61.12.84-91.67l1.32 1.12c-12.45 68.58 5.7 122.68 23.24 154.17 19 34.14 41.28 52.3 41.51 52.48z" fill="#444053"/></g><path d="M1014.35 754.11s-42.28-2.55-37.29 27.08c0 0-1 5.23 3.75 7.61 0 0 .08-2.2 4.34-1.45a19.36 19.36 0 004.59.22 9.62 9.62 0 005.62-2.32s11.88-4.91 16.5-24.33c0 0 3.42-4.24 3.29-5.33l-7.14 3s2.44 5.15.52 9.42c0 0-.23-9.23-1.6-9-.28.05-3.71 1.79-3.71 1.79s4.2 9 1 15.48c0 0 1.2-11.05-2.34-14.84l-5 2.94s4.9 9.26 1.58 16.81c0 0 .85-11.59-2.64-16.1l-4.55 3.55s4.61 9.13 1.8 15.39c0 0-.37-13.49-2.78-14.51 0 0-4 3.51-4.59 5 0 0 3.15 6.62 1.2 10.12 0 0-1.2-9-2.19-9 0 0-4 5.95-4.38 10 0 0 .17-6.07 3.42-10.6a11.89 11.89 0 00-6.07 3.14s.62-4.21 7-4.58c0 0 3.28-4.51 4.16-4.79 0 0-6.41-.53-10.29 1.19 0 0 3.42-4 11.46-2.17l4.49-3.67s-8.43-1.15-12 .12c0 0 4.11-3.51 13.21-.95l4.89-2.92s-7.18-1.55-11.46-1c0 0 4.52-2.44 12.9.2l3.5-1.57s-5.27-1-6.81-1.2-1.62-.59-1.62-.59a18.22 18.22 0 019.88 1.1s7.49-2.77 7.36-3.24z" fill="#ca313c"/><ellipse cx="985.23" cy="791.38" rx="29.92" ry="5.06" fill="#ca313c" opacity=".1"/><path d="M1095.45 676.04s-23.83-1.43-21 15.27a4.07 4.07 0 002.11 4.29s.05-1.24 2.45-.82a10.62 10.62 0 002.59.13 5.35 5.35 0 003.16-1.31s6.7-2.77 9.31-13.72c0 0 1.93-2.39 1.85-3l-4 1.72s1.37 2.9.29 5.31c0 0-.13-5.21-.9-5.08-.16 0-2.09 1-2.09 1s2.36 5.06.58 8.73c0 0 .68-6.23-1.32-8.36l-2.83 1.65s2.76 5.22.89 9.48c0 0 .48-6.53-1.49-9.08l-2.56 2s2.59 5.15 1 8.68c0 0-.21-7.6-1.57-8.18a16 16 0 00-2.59 2.79s1.78 3.74.68 5.71c0 0-.68-5.07-1.23-5.09 0 0-2.24 3.36-2.47 5.66a12.22 12.22 0 011.93-6 6.74 6.74 0 00-3.43 1.77s.35-2.37 4-2.58c0 0 1.85-2.55 2.34-2.7 0 0-3.61-.3-5.8.67 0 0 1.93-2.24 6.46-1.23l2.54-2.06s-4.76-.65-6.77.07c0 0 2.32-2 7.45-.54l2.76-1.65a25.22 25.22 0 00-6.47-.56s2.55-1.37 7.27.12l2-.89s-3-.58-3.84-.67-.92-.34-.92-.34a10.32 10.32 0 015.58.62s4.11-1.54 4.04-1.81z" fill="#ca313c"/><ellipse cx="1079.04" cy="697.06" rx="16.87" ry="2.85" fill="#ca313c" opacity=".1"/><path d="M954.76 690.54s-28.78-1.74-25.38 18.43a4.91 4.91 0 002.55 5.18s0-1.49 2.95-1a13.73 13.73 0 003.13.16 6.58 6.58 0 003.82-1.58s8.09-3.34 11.24-16.57c0 0 2.33-2.88 2.23-3.62l-4.85 2.07s1.66 3.51.35 6.42c0 0-.15-6.29-1.09-6.14-.19 0-2.52 1.21-2.52 1.21s2.85 6.11.7 10.54c0 0 .82-7.52-1.59-10.1l-3.42 2s3.33 6.3 1.07 11.45c0 0 .58-7.89-1.79-11l-3.1 2.41s3.14 6.21 1.23 10.48c0 0-.25-9.18-1.9-9.88 0 0-2.71 2.39-3.12 3.37 0 0 2.14 4.51.81 6.89 0 0-.81-6.11-1.48-6.14 0 0-2.7 4.05-3 6.83a14.77 14.77 0 012.33-7.22 8.13 8.13 0 00-4.13 2.14s.42-2.87 4.8-3.12c0 0 2.23-3.07 2.83-3.26 0 0-4.36-.36-7 .81 0 0 2.32-2.71 7.79-1.48l3.06-2.49s-5.73-.79-8.17.08c0 0 2.8-2.39 9-.65l3.33-2s-4.89-1.06-7.81-.68c0 0 3.08-1.65 8.78.14l2.39-.98s-3.58-.7-4.63-.81-1.1-.4-1.1-.4a12.43 12.43 0 016.73.75s5.05-1.92 4.96-2.24z" fill="#ca313c"/><ellipse cx="934.94" cy="715.91" rx="20.37" ry="3.44" fill="#ca313c" opacity=".1"/><path d="M714.07 701l-100.31 38.81-146.62 56.67c-5.53-10.27-13.69-24.32-23.79-41-34.72-57.55-92.18-147.06-143.32-225.72-57.64-88.63-107.24-163.47-107.24-163.47l35.91-10.41 293.32-85.07z" opacity=".1"/><path d="M716.07 694l-100.31 38.81-146.62 56.67c-5.53-10.27-13.69-24.32-23.79-41-34.72-57.55-92.18-147.06-143.32-225.72-57.64-88.63-107.24-163.47-107.24-163.47l35.91-10.41 293.32-85.07z" fill="#fff"/><path d="M716.07 694l-100.31 38.81a754.4 754.4 0 01-170.41 15.67c-34.72-57.55-92.18-147.06-143.32-225.72L230.7 348.88l293.32-85.07z" opacity=".1"/><path d="M790.7 669.86s-155.84 92.18-388.5 71.38L216.7 289.05l88.89-15.27 307.28-52.77 174.35 440.11z" fill="#810920"/><path d="M787.22 661.12c-36.7 1.8-79.14 1.63-121.86-3.46-46.22-5.42-92.66-16.64-132.56-37.18-33.32-17.17-61.81-35.82-86.66-58.21-64.61-58.12-104.6-141.26-140.51-288.49l307.28-52.77z" opacity=".1"/><path d="M901.53 635.84s-114.92 22.52-231.78 8.65c-46.22-5.45-92.71-16.64-132.56-37.18-33.32-17.17-61.81-35.82-86.66-58.21-80-72-122.21-182.22-165.75-404.91 0 0 191 46.09 379.71-54.87 0 0 63.65 397.27 237.04 546.52z" fill="#fff"/><path d="M669.75 644.49c-46.22-5.45-92.71-16.64-132.56-37.18-33.32-17.17-61.81-35.82-86.66-58.21 68.09-5.53 77.88-42.76 77.88-42.76 50.48 80.12 141.34 138.15 141.34 138.15z" opacity=".1"/><path d="M383.55 225.95s102.6 11.71 198.63-42.25l6.58 21.13s-91.87 45.81-205.21 45.81z" fill="#ca313c" opacity=".3"/><path d="M385.55 320.24s121.341-8.23 256.422-63.11l4.568 8.78s-49.714 52.59-260.99 66.33z" opacity=".3"/><path d="M435.93 501.07s115.11-8.23 243.256-63.1l4.334 8.78s-47.162 52.62-247.59 66.39z" opacity=".1"/><path d="M934.4 533.44a171.88 171.88 0 01-13 19.87c-1.88 2-3.39 15.51-3.13 22s-2.49 36.41-13 51.91-5.11 42.29-5.11 42.29l-16.77 5.88h-20.15l-13.88-4.15-3.66-10.1s4.88-.75 17-3.63a15.73 15.73 0 0012.55-14.27l8.51-59.43s2.51-15-1.63-25.38a20.66 20.66 0 011.36-18.1l.27-.42s13.13-10.37 26.51-16.86c11.85-5.72 23.87-8.44 27.28 1.71.44 1.31-1 4.68-3.15 8.68z" fill="#9a5962"/><path d="M900.16 669.52l-16.77 5.88h-20.15l-13.88-4.16-3.66-10.1s1.22-.19 4-.73a7.55 7.55 0 005.81 8.16l7.88.27c1.11 0 2.23.06 3.33.06a100.48 100.48 0 0032.58-5.41c.4 3.69.86 6.03.86 6.03z" opacity=".1"/><path d="M863.38 670.54l-7.89-.27s-7.36-1.56-5.56-9.91c0 0-14.2-3.22-17.83-1.09s-1.88 13.88 8.38 16.76c10 2.81 47.46 6.94 58.23 5.25l.69-.12c9.76-2 0-16 0-16a100.88 100.88 0 01-36.02 5.38z" fill="#bebed0"/><path d="M911.97 535.74c-.53 1.06-1.1 2.16-1.75 3.31-4.95 9-12.89 20.33-14.28 21.8-2.12 2.26-3.81 17.5-3.54 24.86.27 7.36-2.81 41.08-14.67 58.58-6.07 9-7.44 21.25-7.34 31.11a100.24 100.24 0 00.59 10c.44 4.07 1 6.61 1 6.61l-18.92 6.63h-22.77l-15.67-4.66-4.1-11.44s1.37-.22 4.45-.83 7.88-1.63 14.74-3.25a17.78 17.78 0 0014.13-16.1l9.59-67.07s2.83-16.95-1.83-28.65a23 23 0 01-1.12-13.69 21.84 21.84 0 013-7.22s3.66-2.88 9.18-6.69c2.44-1.68 5.27-3.54 8.31-5.42 13.36-8.27 30.93-16.71 39.35-10.56a10.89 10.89 0 013.88 5.59c.34 1.16-.61 3.79-2.23 7.09z" fill="#a5636d"/><path d="M871.93 692.02l-18.92 6.63h-22.72l-15.67-4.66-4.1-11.44s1.37-.22 4.45-.83a8.35 8.35 0 002.66 7.39 8.91 8.91 0 005.64 2.12l7.17.23c1.25 0 2.51.07 3.76.07a113.75 113.75 0 0036.78-6.12c.44 4.07.95 6.61.95 6.61z" opacity=".1"/><path d="M830.43 693.16l-7.16-.24a9 9 0 01-5.65-2.12c-1.82-1.62-3.39-4.42-2.37-9.13 0 0-16-3.63-20.13-1.23s-2.11 15.67 9.46 18.92c11.33 3.17 53.57 7.83 65.73 5.93l.77-.14c11-2.26 0-18.08 0-18.08a113.46 113.46 0 01-40.65 6.09z" fill="#bebed0"/><path d="M934.4 533.44c-6.85 2.39-16.91 5.56-22.43 5.69a10.06 10.06 0 01-1.71-.08c-3.86-.53-15.79.32-26.73 1.3-4.39.39-8.61.8-12.1 1.16-5.2.54-8.78.93-8.78.93v-3.39c2.44-1.68 5.27-3.54 8.31-5.42 13.36-8.27 30.93-16.71 39.35-10.56 11.85-5.72 23.87-8.44 27.28 1.71.4 1.29-1.04 4.66-3.19 8.66z" opacity=".1"/><path d="M967.27 454.57c-.19 5.07-2.09 18.23-15.71 31.53-17.36 16.95-10 41.29-10 41.29s-20.7 8.13-29.63 8.35a10.06 10.06 0 01-1.71-.08c-5.36-.75-26.64 1.22-38.87 2.46-5.2.54-8.78.93-8.78.93v-72l95.93-23.29 8.69 8.65a16 16 0 01.08 2.16z" fill="#5c5c8e"/><g opacity=".1"><path d="M864.19 538.16l-1.58.17v.76s3.58-.39 8.78-.93c8.78-.89 22.19-2.14 31.06-2.51-6.14-.56-26.42 1.31-38.26 2.51zM967.23 452.45l-8.69-8.66-5.79 1.45 7.28 7.25a16 16 0 010 2.17c-.19 5.06-2.09 18.23-15.71 31.53-17.36 16.94-10 41.29-10 41.29s-17.13 6.72-26.94 8.11a24.73 24.73 0 012.8.15 10 10 0 001.71.09c8.93-.22 29.63-8.35 29.63-8.35s-7.4-24.35 10-41.29c13.62-13.3 15.52-26.47 15.71-31.53a16 16 0 000-2.21z"/></g><path d="M775.57 403.71s-29-20.12-31.13-2 31.13 15.53 31.13 15.53z" fill="#a5636d"/><path d="M825.57 390.37s-15.69 10.38-24.37 9.74c0 0-23.72 3.18-26.48 1.59s-4.44 23-4.44 23l39-2.75 25-3.82s12.5-7.62 12.5-14.19-21.21-13.57-21.21-13.57z" fill="#f7cddd"/><path d="M825.57 390.37s-15.69 10.38-24.37 9.74c0 0-23.72 3.18-26.48 1.59s-4.44 23-4.44 23l39-2.75 25-3.82s12.5-7.62 12.5-14.19-21.21-13.57-21.21-13.57z" opacity=".05"/><path d="M802.56 442.73s-35.27-1.46-27.37 15 34.63-3.52 34.63-3.52z" fill="#a5636d"/><path d="M838.04 407.74s-28.59-21.39-24.56-47.44 24.56 19.94 24.56 19.94z" fill="#5c5c8e"/><path d="M830.14 289.64a36.18 36.18 0 01-10.17 25.11 34 34 0 01-5.22 4.45 37.29 37.29 0 01-11.86 5.48 37.68 37.68 0 01-5.13.91c-1.24.12-2.49.19-3.76.19a35.26 35.26 0 01-11.91-2 36.14 36.14 0 1148.05-34.1z" fill="#a5636d"/><path d="M967.27 454.57c-3.24.6-7.24 1.68-7.24 3.36 0 2.83-45.18 18.08-45.18 18.08s1.69 3.94-2.82 10.72c-4.51 6.78-41.23 45.74-41.23 45.74l.12 1.16.47 4.49 2.24 21.46s-14.12-5.08-18.64-4.52c-1.46.19-3-.75-4.51-2.1a21.84 21.84 0 013-7.22s3.66-2.88 9.18-6.69v-72l95.93-23.29 8.69 8.65a16 16 0 01-.01 2.16z" opacity=".1"/><path d="M971.33 450.59s-11.3 1.12-11.3 3.95-45.18 18.08-45.18 18.08 1.69 3.94-2.82 10.72-41.23 45.75-41.23 45.75l2.83 27.1s-14.12-5.08-18.64-4.52c-2 .25-4.25-1.61-6.1-3.78a39.34 39.34 0 01-4.07-5.81s5.09-21.47-1.69-26.55 7.34-42.35 7.34-42.35 6.38-26.5 4.5-37.87a13.64 13.64 0 00-.54-2.24c0-.08-.05-.17-.08-.25-4-10.86-47.36-102-47.36-102a65.48 65.48 0 01.54-7.73c.09-.71.21-1.45.34-2.2a37.28 37.28 0 01.88-4 25 25 0 01.82-2.49c1.34-3.44 3.39-6.09 6.45-6.15 0 0 3.39-3.75 11.34-4.77 5.82-.76 14.13 0 25.38 4.77 26.53 11.28 32.75 11.86 32.75 11.86l13.33 17.5 2.74 3.59a345.89 345.89 0 0127.21 41.3c4.44 8 10.73 17.29 18.27 22.88 15.25 11.33 24.29 45.21 24.29 45.21z" fill="#f7cddd"/><path d="M872.35 385.29s37.7 9.32 52.31 32.82zM884 426.58s7.13 47.87 5.15 51.47-5.15-51.47-5.15-51.47zM881.45 451.15c-2.74 3.59-13.87 31.34-13.87 31.34l3.21 46.6 2.83 27.1s-14.11-5.08-18.63-4.52c-2 .25-4.26-1.61-6.1-3.78 2.93-15.87 9.2-49.08 10.33-49.72 1.49-.85 9.12-27.53 9.52-35s11-24.12 11-24.12 4.47 8.51 1.71 12.1zM870.8 405.41c-.7 2.11-1.78 14.4-1.78 14.4-.78 10.82-9 14.36-14.05 15.5a13.64 13.64 0 00-.54-2.24c-3.39-9.59-47.44-102.21-47.44-102.21a60.85 60.85 0 011.76-13.94c9.59-2.82 24.77 1.52 24.77 1.52 4.39-.58 18.71 27.89 18.71 27.89s9.54 21.8 10.59 24.77 0 7.84.42 9.54 4.88 3.16 5.51 5.5.22 7 .64 7.83 2.12 9.32 1.41 11.44z" opacity=".1"/><path d="M867.41 403.71c-.7 2.12-1.78 14.4-1.78 14.4-.64 9-6.44 13-11.28 14.71a23.64 23.64 0 01-6.78 1.35l-6.81 5.92-31.45 23.15s-11.72-21.67-8.54-21.79c3.18-.12 21.52-15.52 21.52-15.52 5.61-3 11.23-13 13.84-18.14a15.85 15.85 0 01-.34-1.86c-1.13-9.59-24.85-46.31-24.85-46.31s-9.17-10.79-12.74-30.78c-.1-.46-.17-.93-.26-1.41a14.34 14.34 0 01-.18-1.88c-.43-7.69 5.17-10.49 11.81-11.15a47.4 47.4 0 0110.4.32 75.29 75.29 0 0110.17 2c2.84-.38 9.84 11.43 14.43 19.8 2.47 4.54 4.25 8.08 4.25 8.08s9.54 21.81 10.59 24.77c1.05 2.96 0 7.85.42 9.54.42 1.69 4.88 3.17 5.51 5.51.63 2.34.22 7 .64 7.83.42.83 2.14 9.34 1.43 11.46z" fill="#f7cddd"/><path d="M903.89 354.85c-6 6.13-15.69 6.15-23.47 3s-14.37-8.79-21.58-13.18c-4.68-2.86-9.64-5.2-14.25-8.15-.68-.44-1.34-.88-2-1.34-5.32-3.76-9.93-8.59-15.44-12a24 24 0 00-12.4-4 14.1 14.1 0 00-5.91 1.24 8 8 0 00-1 .49 25.5 25.5 0 00-5 3.75c-1.56 1.4-3.05 2.89-4.69 4.2-.1-.46-.17-.93-.26-1.41a14.34 14.34 0 01-.18-1.88c-1.24.12-2.49.19-3.76.19a35.26 35.26 0 01-11.91-2c0-.15 0-.3-.09-.45-1.35-7.12-3.79-14.66-9.52-18.66-3.32-2.32-8.62-3.27-13.22-5a36.14 36.14 0 1168.1 3.91c5.82-.76 14.13 0 25.38 4.77 26.53 11.28 32.75 11.86 32.75 11.86l13.33 17.5c-1.44 2.2-3.07 4.37-3.22 6.94-.25 4.71 4.34 8 8.34 10.22z" opacity=".1"/><path d="M772.47 301.24c5.73 4 8.17 11.53 9.53 18.64.42 2.22.82 4.56 2.18 6.32 3 3.94 9.16 2.83 13.13 0 3.97-2.83 7.1-7.12 11.53-9.12 5.88-2.66 12.8-.72 18.31 2.73 5.51 3.45 10.12 8.28 15.44 12 5.15 3.63 10.89 6.22 16.25 9.49 7.21 4.39 13.8 10.06 21.58 13.18 7.78 3.12 17.5 3.11 23.46-3-4-2.22-8.59-5.5-8.28-10.26.31-4.76 5.85-8.31 5.48-13.19-.37-4.88-6.11-6.79-10.23-9.19-8.6-5-12.27-16-14.11-26.15-1.43-7.94-2.61-16.81-8.54-21.91-3.83-3.28-9-4.35-12.86-7.6-3.65-3.09-5.68-7.76-8-12.07-3.83-7.17-8.86-13.84-15.51-18.13-6.65-4.29-15.11-6-22.41-3.06-2.8 1.11-5.35 2.83-8.11 4-6.88 3-14.75 2.57-21.56 5.7-8.39 3.86-13.84 12.38-18.83 20.47-4.22 6.93-12.59 19.15-10.22 28.15 2.36 9.15 15.55 8.66 21.77 13z" fill="#4c3e42"/><g opacity=".1"><path d="M901.07 327.48a6.31 6.31 0 00-.19-1.1c-1.52 2.39-3.41 4.71-3.59 7.51a6.81 6.81 0 00.16 1.93c1.69-2.69 3.86-5.22 3.62-8.34zM882.11 347.18c-7.78-3.12-14.36-8.79-21.57-13.18-5.37-3.27-11.11-5.86-16.26-9.49-5.32-3.76-9.93-8.59-15.44-12s-12.42-5.39-18.31-2.74c-4.43 2-7.55 6.25-11.53 9.13s-10.08 4-13.13 0c-1.36-1.76-1.76-4.1-2.18-6.32-1.35-7.11-3.8-14.64-9.52-18.64-6.23-4.35-19.42-3.86-21.81-13a14.2 14.2 0 01-.31-5c-1.53 4.08-2.32 8.18-1.39 11.75 2.4 9.18 15.59 8.69 21.81 13 5.73 4 8.17 11.54 9.53 18.65.42 2.22.82 4.56 2.17 6.32 3 3.94 9.16 2.83 13.14-.05s7.09-7.12 11.53-9.12c5.88-2.65 12.8-.71 18.31 2.74s10.12 8.28 15.44 12c5.15 3.64 10.89 6.22 16.25 9.49 7.21 4.4 13.8 10.07 21.58 13.19s17.5 3.1 23.46-3a28.72 28.72 0 01-4.37-2.89c-5.42 1.99-11.89 1.37-17.4-.84z"/></g><path d="M705.12 415.58l80-29.88a7.6 7.6 0 019.79 4.46 7.61 7.61 0 01-4.47 9.79l-80 29.89-17.14-1.72z" fill="#48488e"/><path d="M792.48 387.76a7.62 7.62 0 01-4.47 9.8l-80 29.88-12.88-1.29-1.85 2 17.14 1.72 80-29.89a7.61 7.61 0 004.47-9.79 7.58 7.58 0 00-3.11-3.8 8.28 8.28 0 01.7 1.37z" opacity=".409" fill="#fff"/><path fill="#efc8c4" stroke="#48488e" stroke-width=".1" d="M710.42 429.87l-14.07-1.41-3.08-.31 4.21-4.46 7.61-8.08z"/><ellipse cx="157.52" cy="740.06" rx="62.19" ry="9.54" fill="#ca313c" opacity=".1"/><path d="M156.247 565.692c-1.95 2.124-2.294 5.28-2.207 7.212-.163 1.256-.8 2.671-.057 4.183-2.285-.487 2.034 3.239-1.287 1.284-.67 1.924.587 2.469-.636 3.349 1.438 2.296 3.397 3.65.192 1.134-1.714-1.163-.766 1.398-2.226.925-.815 2.597 7.897 7.396 2.477 4.525-1.43-.399-4.805-3.514-3.319-.054-3.096-4.264-1.517 1.543-.615 2.606-2.263-1.949-4.227-3.7-3.408-.043.834 3.088 2.12 5.558 4.217 7.58 1.814 1.102 3.763 3.129 5.69 3.788-.628 1.532-3.407-.95-4.2-1.822-1.215-.112-2.19-1.785-3.467-2.423a28.802 28.802 0 01-4.822-4.955c-1.983-2.103.45 4.87 2.04 5.835 1.261 1.758 2.935 3.29 4.87 4.36 1.623 2.344 4.922 2.555 5.64 4.221-1.651-.153-2.724-.958-4.013-1.996-1.87-.43-2.284-1.901-3.843-1.459-1.183-1.148-1.858-.992-3.112-2.112-.874-.786-2.84-1.909-4.993-3.797-5.04-4.135 1.121 3.198 1.862 4.29 1.653 1.854 3.94 3.261 4.31 4.197.94.74 3.289.609 3.052.895 1.232.888 1.34 1.453 3.049 2.326 1.665 1.207 1.277.203 1.913 1.956 3.243-1.733 1.72 1.903-.178.879-.163.307-.976-1.355-1.557-.88-.815-1.888-1.296.658-2.129-1.976-.607-.113-2.433-2.045-2.952-1.552-.39-2.69-1.414 1.576-1.594-1.677-.971 2.483-1.646-2.567-3.041-1.009-1.278-1.522-2.01-1.913-3.852-3.183-1.427-.489-5.806-5.635-2.684-.326 1.327 1.987 3.248 4.568 4.666 4.948-.68 1.652 4.332 2.457 3.105 3.5 1.211.706 3.619 2.881 5.202 3.805 1.454.454 2.23 1.118 3.268 1.227-1.275 2.508 2.898-.256 1.079 2.393-1.412-.208-2.65-2.308-3.865-1.793-.178-.341-1.29-1.292-1.853-1.352-.971-1.51-1.217 1.072-1.921-1.5-1.013.449-1.721-.41-1.991.032-.605-2.549-1.053.367-2.002-1.91-.205 2.606-.82-2.313-1.535-.107-1.189-1.812-2.293-1.775-4.012-2.885-1.519-1.276-6.942-3.703-2.8-.256 1.739 2.154 5.356 5.554 5.915 5.938 1.003 1.817 3.328.567 2.86 2.339 2.839-1.399-.687 1.943 2.576.784-.915 2.765 4.734.473 2.756 2.724 2.077.92 3.097.17 3.539 2.017 1.12-.781 1.916 1.196 2.733.652-.267 3.057 3.846-2.607 2.509 1.856-1.797-1.582-1.04 3.109-2.378-.44-1.653.217-3.24-1.053-4.769-1.993-.31 3.022-1.069-2.939-1.888.267-.795-2.887-1.41-.498-2.59-2.413-.227 2.56-1.503-2.99-1.609.806-.053-3.489-2.747-1.635-2.657-2.05-.557-2.63-1.227.242-2.125-2.088-.43 1.456-1.24-1.53-1.65-.422-1.207-1.218-2.787-1.912-5.243-4.172-3.556-2.946 1.78 4.976 3.607 5.536.076 1.456 2.913 3.516 4.423 3.977.737.864 2.427 3.203 4.87 2.36-2.239 2.763 5.43 2.098 3.862 3.686 2.298.287 1.294-.129 2.488 1.203 2.176-1.847.655 2.686 3.528-.322-.917 2.663-.343 2.715-2.279 1.898-.723-.803-2.033-.367-2.813-2.273-.651 1.262-1.647-.943-2.269-.031-.87-1.787-1.457.876-2.456-1.466-.554.283-1.542-.828-1.893-.432-.864-1.607-1.165.635-2.296-1.16.1 2.372-1.335-1.923-1.726-.556-.976-1.896-1.039.409-2.24-1.513.055 1.157-1.454-1.002-1.708-.655-1.952-.017-5.51-4.24-5.929-3.099 1.44 3.373 4.468 4.973 5.634 6.596 1.844-.513 1.82 1.913 3.515 2.179 2.067 1.283 2.942 2.42 5.146 3.515 1.69 2.113 4.767-.244 3.792 2.288 2.551-.057 2.68-1.896 1.745.961 2.061.649 5.168 1.982 5.53 1.127-1.84 3.88 4.087-1.976 2.526 2.755-1.969-1.905-1.513 3.796-2.454-.43-1.91.081-2.458-.189-3.847-1.292-.955 4.445-.001-.227-2.044-.375-.296 1.992-1.566-1.854-2.335-.466-1.003-2.318-1.57 1.479-2.378-1.416-.66 2.272-1.673-.708-2.605-.29-1.01-1.299-1.438.359-2.596-1.018.28 3.516-1.381-3.215-1.634.568-1.044-4.168-2.584.404-3.516-3.057-1.116.007-2.094-.356-3.46-1.816-1.874-.028-7.012-5.455-2.967-.15 2.035 2.458 2.792 3.283 4.509 4.872 2.697-.742-.536 1.618 2.818 2.253 1.408 1.412 2.912-.653 1.49 1.374 1.784 1.07 3.373-1.379 1.398 1.182 3.108.524 4.994 3.495 8.11 1.08-3.974 3.723 4.54 1.95 3.279 2.058-2.108 4.22 4.424-2.209 1.5 1.726 1.401 1.598 3.459-2.822 1.809.793 1.744 1.51 4.592-4.421 2.097.336.545 2.374 3.786-2.605 3.067 1.36.536 1.554-1.868.275-2.082 1.167-2.406-1.23-4.219.48-6.09-1.819-1.117.76-2.654-1.075-2.271 2.205-.029-2.441-2.635-4.086-1.875-.536-.296-2.494-2.703-3.434-2.017-.288-.165-2.128-1.857-3.166-2.411-2.103-1.709-2.752-.84 3.018-2.24-.966-1.339.643-.094 2.199-1.912-.289-.06 2.713-2.17-2.154-1.702 1.287-.807-2.612-1.707-1.191-1.668-.76-1.529-2.156-1.071 0-2.76-1.515-1.118-.278-2.188-.54-4.507-1.266-1.773-.78-4.148-4.287-2.074-.297 2.19 2.344 4.678 3.849 7.127 5.16 1.138 2.403 4.215-.014 3.71 2.36 2.163-.683 2.118-2.191 1.323.295 1.84.696 4.187.554 5.584 1.889 2.466-1.011 2.212-2.52 1.687.31 2.532-.294 4.401 2.196 6.54-.583-2.916 4.279 2.744.223 1.743 1.309-1.224 3.191 4.428 1.169 4.081.944-1.39 5.4 3.177-2.548 2.594 2.493.32 1.62-2.136-.39-1.749 2.384-1.615-2.613-1.79.892-3.528-1.007-.333 1.62-2.13-.976-2.746.29-1.508-1.842-1.37 1.223-2.91-1.05-.4 4.2-.83-.98-2.531.58-2.14-2.556-.642 4.411-2.201-.315-1.898-1.376-.291 3.27-2-.3-.966 1.887-2.474-2.302-2.473 1.101-.525-1.801-2.674-2.28-1.636.048-.962-2.301-1.901-1.321-1.882-.536-1.922-2.643-1.058.983-2.86-1.21-.183 1.068-2.025-.951-1.783.32-1.7-1.31-2.592-.268-4.67-.796-2.066-1.197-4.686-1.692-1.615.819 2.97 1.62 4.761 2.824 7.472 3.311 1.093 1.51 3.44.503 4.322 1.73 1.337-1.58 2.394 2.457 4.946-.26-2.203 4.6 5.68-1.266 3.54 2.594 2.465-1.784 3.733 1.703 6.171-1.16-1.49 3.718 4.684.652 4.175.804-.235 4.206 3.668-3.94 2.313 1.434 1.74 1.283 2.577-4.41 2.827-.201 1.016 2.239-1.754.723-1.783 2.778-1.698-1.449-2.993.884-4.865-.815-.767 1.862-2.122-.447-2.892.665-1.444-1.845-1.508 1.334-2.969-.989-.505 2.273-2.787-2.065-2.064 1.953-.918-3.472-2.283-.786-2.109-.408-.475-2.503-2.69-1.691-1.416.687-1.28-3.195-2.13-1.023-3.797-2.214.197 1.756-2.12-1.266-1.909.576-1.96-1.565-2.954-.242-5.123-1.52-1.676.732-6.198-3.232-6.233-2.021 2.015 2.564 4.229 4.655 6.88 5.578 1.175.936 3.396 2.435 5.024 1.342-.823 2.165 4.229 1.605 5.1 1.25-.718 3.299 3.581-2.216 2.1 1.427 2.422-.391 4.32 1.657 6.443-1.64-2.168 2.724.856 3.18 1.947.75-.69 2.737 1.842.31 2.667 1.725 2.616-2.807.592-.652 2.148.322 2.629-3.466.97-.686 2.606.417 2.579-3.833 2.657 3.967 2.35 5.898 1.104 1.417-.283 3.299 1.923 2.782-1.01 4.172 1.372 10.884 2.185 15.923 3.727 2.404-.875-7.046-.497-9.757-.302-2.51-.438-5.362-1.347-7.317-3.146-3.797 2.991 1.337-.121-1.826-1.21-.231-1.718-3.61.673-2.172 2.936.64-2.447-4.923 1.395-1.47 2.14 1.191 1.051-1.888 3.567-.548.944-1.13 3.376-.93.555-3.173-.124.679 5.56 3.472 2.358-.517-1.233-.863 5.321 3.442 2.447-.343-2.657-2.063 5.344 2.51 1.942-1.255-2.217-1.216 5.724 2.25 1.823-1.094.007.713 5.571.226 3.685-1.78 3.529 1.154.059-1.803 3.527-.922.185-.996 1.965-1.259 1.238-1.759 3.059-.22 1.418-1.999 3.973-2.585.255-1.077 8.412-7.63 2.814-4.76-1.64 1.465-3.482 1.37-4.877 3.017-.803-1.603-1.572 2.878-1.951.038-1.297 1.48-.425 2.865-1.257.697-1.305 1.466-.607 2.116-1.783.73-1.283 3.216-.224 1.335-1.65.651-1.107 2.927-.3 1.023-1.785.728-.324 2.888-2.092-1.418-2.335 2.7-1.015-5.717-1.958 4.028-2.132-.34-1.844-1.808-.58 3.397-2.625 2.35-.103 5.28-1.941-4.011-2.055 1.01.055 2.985-.688-4.042-1.903.15-.063 2.755-.866-3.272-2.149.236-1.813-1.012-3.2 2.299-5.049.484-.936 2.252-2.18-4.512.885-1.085.738-2.37-1.545-3.78 1.765-1.423 1.773-.39 3.53-1.448 1.447-3.532 1.205 2.924 7.377 2.203 4.24-.944 1.103 2.458 5.674 1.076 4.379-.504 3.682 2.553.073-2.84 3.276-.258 2.188-.299-1.549-2.581 1.67-.99 1.945-.603-1.781-2.43 1.661-.994 1.773-.796-1.613-1.952 1.799-.926 1.806-.577 1.941-1.828 1.5-1.958 2.686.186 2.73-1.986 4.536-2.69 1.593-2.016 6.728-7.571 1.408-3.852-1.697.773-3.001 1.914-4.34 2.155-1.056 2.584-2.568-.605-3.664 3.207-.032-4.051-1.425 1.704-2.112-.849-.756 2.431-1.645-.207-2.424 1.386-1.31-.45-1.457 1.104-2.731.265-.572 3.96-1.263-2.06-2.363 1.333-1.397-2.551-1.291 3.306-2.516-.192-.743 2.957-2.927-.656-2.818 3.671-.162.838-.813-4.02-1.7-.657-.319 2.606-.829-3.574-2.03.01-1.395-1.994-1.864 2.47-3.003-.407-1.827 3.532-2.447-5.782.014-1.505 3.184.498-1.203-3.904 2.671-.961 1.713-.951-1.608-3.447 1.498-1.265 2.07-.452-.21-1.767 2.833-.859-1.61-3.729.255.322 2.13-1.21-3.224-3.87 2.453 2.045 1.585-1.492 3.175 2.459 1.357-1.878 1.585-1.115 1.758 1.832 3.357-.048 1.01-1.46 1.174 1.954 4.949 1.487 2.13-.562 2.978 1.385 4.241-1.037 5.991-1.744 2.368-.17-.281-1.543 2.599-1.167 1.63-1.475-.4-1.678 2.388-2.015.673-1.21 2.56-2.129 4.326-3.325 5.778-3.4-3.132-.061-3.652-.085-1.677.252-3.558 1.231-4.171 2.2-.429-1.845-.906.72-1.975-.013-1.186 2.207-.456 1.96-1.1.124-2.046 2.505-.371 2.22-1.999.858-1.05 2.311-.585 2.525-1.424.393-1.598 2.215-.515 3.607-1.614.514-.947 2.157-2.793-.557-2.824 3.54.026-4.696-3.35.375-3.794-.612-1.6-.609-1.066 2.24-2.716.314-.938 2.302-.197 3.652-1.535.833-1.343 1.684-3.525 1.291-4.923 2.049-2.122.268-2.166-4.574.574-1.726 2.184-.931 2.174-2.463 4.407-2.272-3.123-3.939 3.158 1.905 1.32-1.844.855 1.624 3.636 1.44 1.807-.64.998 1.777 3.608 1.249 1.759-.786.918 1.807 3.992 1.807 2.03-.45 1.806 2.384 2.61-.29 2.32-.172 2.081.752 3.535-.322 5.308-1.245-3.581-2.705 3.605.606 1.3-1.48 2.783.828 3.42-1.675 5.267-1.86 1.78-1.553 3.732-3.082 5.59-5.219 2.901-3.179-4.519 2.027-4.854 1.642-.989-.505-2.717 1.37-3.65.742-.989 1.017-2.621 1.782-2.75 1.884-.06-2.99-1.744 2.615-1.794-.74-1.559 1.714-.861 2.164-1.936.441-1.68 3.339-.327 1.616-1.798.653-.759 1.757-2.434-.55-2.784 3.035.999-4.132-2.026-.812-1.746-.032.323-4.888-2.266 2.74-2.023-1.045-2.052-.396-.864 3.684-2.177.058-1.082 2.107-1.972-.52-3.032 1.77-1.323-1.196-3.045 1.112-4.388-.129-1.377 2.91-1.186-5.128 1.11-.976 2.606.03-1.148-3.455 2.367-1.187 1.574-1.579 3.54-1.744 5.55-2.792-2.903-3.427 3.792 1.86 1.483-1.911 1.702 1.865 3.827 0 1.13-1.284 3.29 2.765 3.629-1.337 5.393-.827 1.327-1-1.254-1.49 1.67-1.093-.236-1.033 4.631-2.43 4.025-3.305 1.942-.15-.606-1.113 1.953-1.236.8-.956 3.798-3.46 5.01-5.691-2.271 1.81-5.124 2.425-6.697 4.112-1.232-.663-2.053 2.17-2.905.52-.702.98-1.886 1.465-2.382 1.899-.665-1.695-1.139 1.92-1.942-.14-.552 1.393-2.026.284-2.268 1.867-1.323-2.689-1.403 4.756-2.21-.193-.787 3.289-1.637-.593-2.496 2.445-1.406-2.907-1.415 3.748-2.377-.32-.763 2.873-2.332-.946-2.52 2.655-1.087-3.242-2.812 2.068-4.195-.614-1.615 1.45-.333-3.936.97-.496 2.253.28-.151-2.28 2.707-.736.066-2.575.005-.476 2.122-1.335-2.576-2.24 5.814-.25 2.158-3.431 2.694 1.76 2.846-.67 1.902-.987 3.336 2.178 1.594-1.743 2.15-.75 2.365.72 4.29-2.724 4.3-2.842 1.834-.843 3.761-3.201 3.19-4.204 2.125-.683 5.172-5.26 5.023-6.296-1.89 1.426-4.583 3.95-5.813 3.958-.405 2.948-1.741-.514-1.719 2.933-1.092-2.139-1.82 1.996-2.92.488-.026 3.274-1.27-1.122-1.656 2.225-1.278-2.74-1.077 2.604-2.321-.14-.23 3.816-1.224-.88-1.861 2.293-2.048-1.499-.623 3.306-2.533.394-.064 3.061-1.021 1.76-1.704 2.897-.617-3.296-1.522 2.312-2.28-.859-1.744 3.259-4.242-2.896-.073-.174 2.886-.495.142-3.789 2.925-1.449 2.232-.517-1.728-3.116 2.026-1.528-.445-2.366.658-.434 2.123-1.945-1.244-.79 2.611-.556 1.007-1.755 3.282.403-.307-1.928 2.873-1.64-1.806-1.252 1.908-.768 1.288-1.888 1.205-1.154-.22-.911 1.938-1.966-1.39-.265 2.522-2.115 1.42-2.754 1.76-1.042 2.493-3.994 3.884-6.971 1.532-3.808-3.792 1.057-5.043 2.037-1.783.833-1.812 1.705-3.021 2.25-1.03-.183-2.622 1.568-3.762 2.081-1.117-.718-.652 1.5-1.945.521-.123 2.407-1.092-.522-1.812 1.465-.953.996-1.99.865-2.487 1.973-.887-.371-5.012 2.395-3.686-1.063 3.204 1.377 2.569-2.2 4.597-1.875 2.287-.727 2.026-2.202 3.893-2.692 1.847-.898.446-1.14 2.557-1.683-.26-.375 1.97-2.123 1.751-2.58.946-.867 2.38-2.464 3.319-5.148 1.81-2.988.729-4.008-1.1-.74-1.72 2.374-2.837 2.47-3.369 4.323-.919-1.281-2.24 2.433-3.088 1.515-.963 1.944-1.573.178-2.202 2.237-.958-.19-2.585.891-3.23 2.23.308 1.514-.999-2.231-1.308.751-.987-1.169-3.08 1.522-2.446-1.95 3.113.867 4.61-2.134 6.567-2.993 1.997-.363 3.807-2.763 4.433-3.768.453-1.61.775-2.156 1.264-4.092 1.16-3.655 1.67-6.79-2.281-3.314-1.756 1.23-2.936 2.625-4.35 3.55-1.195.382-2.407 1.682-3.992 2.403-3.157 1.236-1.275-.566.8-1.757 1.27-1.323 2.572-1.626 3.944-3.314 2.284-1.822 5.675-10.497.94-4.451-1.643 1.604-2.924 3.448-4.746 4.358-3.227 2.962 1.17-1.852 2.607-2.556 2.778-2.127 4.102-7.84.108-3.133-2.367 2.06-3.22 2.472-.74-.545.474-3.26-4.345 3.667-5.014 1.766 2.715-1.057 7.352-5.52 3.868-6.037-2.376.934-5.39 1.841-1.517-.248 3.644-4.277-5.264 1.361-.666-1.858 2.266-1.765.055-2.306.057-2.3.934-2.626-2.596 1.076.036-2.213-1.844.538.364-2.676-1.125-2.944.473-2.407-1.28-4.682.177-8.042.532.264-.199-1.405.145-1.19zm.07 15.222c.367.123-.356.272 0 0zm-1.794 1.502c.532.184-.356.176 0 0zm-1.222 3.332c.973.73-.211.444 0 0zm5.194.62c-1.357 1.43-5.629 2.549-1.148.444l1.148-.443zm-4.535.01c.596.07 1.245 1.16 0 0zm-3.075 3.348c1.456.842 5.746 3.124 2.113 1.805-.589-.682-1.8-.988-2.113-1.805zm7.205 2.02c.353.258-.18.305 0 0zm-.595 0c.617.617-1.24 1.287 0 0zm-7.043.535c.526.58.184 1.252 0 0zm6.175.44c-.55 1.235-2.615.698 0 0zm-5.56.096c.865.46.418 1.393 0 0zm1.178.751c.354.26-.183.305 0 0zm16.05.174c-1.492 2.371-2.77 5.34-3.884 6.992-1.59.907-2.668 1.164-3.844 2.295-.998.688-2.464 1.847-4.161 2.115-1.797-1.07 1.651-2.356 2.85-3.036 1.74-1.092 3.18-1.655 4.886-3.172.519-1.003 2.875-3.874 4.152-5.194zm-15.783.256c.182.307-.354.256 0 0zm.453.114c.724.51.206.908 0 0zm.657.518c2.155-.14.894 1.221 0 0zm-3.498.44c.588.126-.646.456 0 0zm.903.8c-.006.503-.566.134 0 0zm4.299.38c2.785-.457-.524 1.594 0 0zm-2.477 1.095c.792.305-1.165.272 0 0zm1.739.59c1.513 1.638-3.225-.269 0 0zm21.504 8.18c.182.307-.355.258 0 0zm-4.122 4.612c.356.278-.357.274 0 0zm-1.694.644c.471.203-.185.353 0 0zm.624.236c.502.525-.057.6 0 0zm-1.059.85c.597.825-.094.905 0 0zm-1.781.746c.39-.097 1.346.615 0 0zm-1.38.742c.677.209.177.502 0 0zm1.188.321c-1.27.14-.54-.008 0 0zm-2.496.482c1.008.22.378.695 0 0zm1.297.376c.504.392-.355.445 0 0zm-2.278.643c.564.105.117.374 0 0zm1.02.216c.661.658-.457.354 0 0zm-3.195.19c3.68.915 2.6 3.197 0 0zm7.248.027c1.427-.327-.253.57 0 0zm-14.13.554c.987 1.711-2.855 3.094-1.02.698l.763-.504.257-.194zm5.905.639c2.048.026 2.414 2.106.905.989.013 1.887-2.345 1.533-3.101 2.598-1.384-1.456 2.006-1.896 1.048-2.477.993.72 2.086-.177 1.148-1.11zm-5.002 2.344c4.43 1.832-1.138 2.076 0 0zm1.447 4.504c1.074.662.07.859 0 0zm-12.92 3.753c.354.259-.18.306 0 0zm10.81 1.008c.476 1.651-2.462 4.952-1.623 1.19.564-.365 1.036-.858 1.623-1.19zm6.396 7.703c.54.271.336.492 0 0zm19.66 2.228c.564.105.117.374 0 0zm-17.982 3.217c.357.275-.356.278 0 0zm-2.615 4.45c.592.168.004.37 0 0zm6.991 2.561c.283 1.326-.365.572 0 0zm-15.6 1.612c-.528 1.227-.893.817 0 0zm17.337 1.136c.508.19.285.797 0 0zm-31.413 4.655c.441.226-.3.492 0 0zm-3.301.103c.515.119-.174.455 0 0zm34.853 2c.55.513-.966 2.221 0 0zm-2.051 1.611c.24.571-.353.534 0 0zm-1.023 2.298c1.03.711 1.087 1.6 0 0zm16.13 1.666c.473.207-.184.35 0 0zm-6.904 3.388c.81.327.43.562 0 0zm21.992.24c-.857-.142.302.875 0 0zm-4.856 2.567c-.263.138.03.213 0 0zm-40.924.347c.18.444-.481.41 0 0zm10.14 2.51c.764.424-.201.396 0 0zm3.027.493c.335.423-.181.428 0 0zm1.435 4.62c-1.288.401 1.2.22 0 0zm-4.642 1.956c-.049.271.88.486 0 0zm.631 1.105l.021.03zm-2.09.847c-.84-.093-.672 1.613 0 0zm1.892.695c.357.275-.356.278 0 0zm.462.451c-.032.178.423.574 0 0zm3.008 15.104c-2.653 1.127.348 1.414 0 0zm.177 2.652c-.484.065-.006.135 0 0z" fill="#8bd400"/><path d="M189.52 679.62l-.3 2.43-.41 3.43-.18 1.43-.41 3.43-.19 1.43-.41 3.43-4.76 39c-.43 3.48-6.12 6.2-13 6.2h-24.71c-6.87 0-12.55-2.72-13-6.2l-4.76-39-.42-3.43-.17-1.43-.43-3.43-.17-1.43-.42-3.43-.3-2.43c-.23-2 2.84-3.64 6.73-3.64h50.59c3.9 0 6.97 1.67 6.72 3.64z" fill="#65617d"/><path fill="#9d9cb5" d="M189.23 682.05l-.42 3.43h-62.59l-.41-3.43h63.42zM188.64 686.91l-.42 3.43h-61.4l-.42-3.43h62.24zM188.04 691.77l-.42 3.43h-60.21l-.42-3.43h61.05z"/><path d="M397.55 370.24s121.341-8.23 256.422-63.11l4.568 8.78s-49.714 52.59-260.99 66.33zM409.55 416.24s121.341-8.23 256.422-63.11l4.568 8.78s-49.714 52.59-260.99 66.33zM421.55 456.24s121.341-8.23 256.422-63.11l4.568 8.78s-49.714 52.59-260.99 66.33z" opacity=".3"/><path d="M698.599 422.406a3.852 3.852 0 011.035 1.137 1.63 1.63 0 010 1.755 3.953 3.953 0 01-.985.695 3.22 3.22 0 00-1.44 2.437l-3.889-.391z" fill="#4c3e42"/></svg>